<?xml version="1.0" encoding="utf-8"?>
<!-- Generator: Adobe Illustrator 23.0.4, SVG Export Plug-In . SVG Version: 6.00 Build 0)  -->
<svg version="1.1" id="Layer_1" xmlns="http://www.w3.org/2000/svg" xmlns:xlink="http://www.w3.org/1999/xlink" x="0px" y="0px"
	 viewBox="0 0 1448.6 275.6" style="enable-background:new 0 0 1448.6 275.6;" xml:space="preserve">
<path d="M1440.5,107.8c-5.4-5-12.2-7.5-20.4-7.5c-14.9,0-26.5,8.7-34.7,26v-7.7c0-6.2-0.5-12.3-1.5-18.4l-3.1,1.1l-5,2.3
	c-11.6,5.3-22.1,8-31.6,8c-1.7-0.3-3.3-0.5-5-0.6c-3.8-0.4-7.7-0.6-11.6-0.6h-2.7c-2.6,0-3.8,0.9-3.8,2.7s1.5,2.7,4.6,2.7
	c9.3,0.3,16,1.5,20.2,3.7s6.4,10.3,6.4,24.4v105.8c0,8.5-0.3,13.2-0.8,14.2c-1.5,2.1-6.7,3.1-15.4,3.1h-5.4c-3.3,0-5,0.8-5,2.3
	s2.1,2.3,6.2,2.3h74.8c3.3,0,5-0.9,5-2.7c0-1.5-1.4-2.5-4.2-3.1c-11.1-0.3-17.7-0.8-19.9-1.5c-2.2-0.8-3.3-2.7-3.3-5.7v-75.4
	c0-28.2,3-47.5,8.9-57.9c5.1-8.9,11.3-13.3,18.5-13.3c5.7,0,8.5,1.9,8.5,5.7c0,1-1.2,2.8-3.5,5.4c-2.3,2.5-3.5,5.8-3.5,9.2
	c-0.1,3.9,1.6,7.6,4.6,10.1c3.2,2.7,7.4,4.1,11.6,4c5.2,0.2,10.3-1.9,13.9-5.7c3.6-3.9,5.6-9.2,5.4-14.5
	C1448.8,119.2,1445.8,112.4,1440.5,107.8 M1206.9,151.2c5.1-30.6,18.1-45.9,38.9-45.9c21.1,0,32.1,15.3,33.2,45.9H1206.9z
	 M1309.5,226.6c-1.8,0-3.2,1-4.2,3.1c-7.2,13-13.9,21.8-20.1,26.4c-6.2,4.6-14.4,6.9-24.7,6.9c-18,0-31.9-6.9-41.8-20.8
	c-9.9-13.9-14.8-33.6-14.8-59.3c0-8,0.7-16.1,1.9-24c29-0.8,44.5-1.1,46.3-1.1h27c13.6,0.3,24.5-0.3,32.8-1.5
	c-0.8-16.6-7.3-30.2-19.7-40.8c-12.3-10.6-27.6-15.9-45.9-15.9c-22.1,0-40.6,8.5-55.3,25.7c-14.8,17.1-22.2,38.4-22.2,63.9
	c0,24.5,7.8,45,23.3,61.6s34.9,24.9,58,24.9c18.5,0,33.3-5.6,44.3-16.8c4.7-4.8,8.7-10.1,12.1-15.9c4-6.5,6-11,6-13.6
	C1312.6,227.5,1311.6,226.6,1309.5,226.6 M1106.8,240c-6.6,12.2-15.3,18.4-26.2,18.4c-6.8,0.1-13.2-2.7-17.7-7.8
	c-4.7-5.2-7-11.9-7-20.1c0-11.7,4.1-21.1,12.3-28.1s21.8-12.7,40.8-17v28C1109.1,228.3,1108.3,237.3,1106.8,240 M1175,251.5
	c-1.3,0-3.2,1.4-5.8,4.2c-4.5,5-11,7.9-17.7,7.7c-6.2,0-9.9-4.6-11.2-13.8c-0.3-2-0.4-8.9-0.4-20.7v-71.6c0-17.3-1.2-28.9-3.5-34.8
	c-6.4-15.3-23.8-23-52-23c-18.8,0-33.4,4.7-43.9,14.2c-9.5,8.7-14.3,19-14.3,31c0,6.1,1.9,11.2,5.7,15.1c3.8,3.9,9,6.1,14.5,5.9
	c11.2,0,16.8-5.6,16.8-16.8c0-3.8-1.3-7.4-3.8-10.3c-2.5-3.1-5.3-4.6-8.5-4.6s-4.7-1-4.7-3.1c0-7.4,3-13.5,9.1-18.4
	s13.6-7.3,22.6-7.3c14.4,0,23.6,6.5,27.8,19.5c2.3,7.1,3.5,21.9,3.5,44.4v9.7c-21.4,4.1-36.4,8.2-45.1,12.2
	c-25.2,12.3-37.8,28.8-37.8,49.8c0,10.2,3.6,18.6,10.8,25.1c7.2,6.5,16.2,9.8,27.2,9.8c20.5,0,35.5-9.4,45.3-28.3
	c0.8,18.1,10,27.2,27.6,27.2c8.4,0,17.2-2.4,26.3-7.1c9.1-4.7,13.6-9.3,13.5-13.6C1176.9,252.3,1176.2,251.5,1175,251.5
	 M1010.7,265.7c-9.2-0.2-14-0.5-14.3-0.8c-1.4-0.3-2.4-1.5-2.7-2.9c-0.3-1.4-0.4-5.9-0.4-13.6V33.7c0.3-15-0.6-26.3-2.7-33.7
	l-3.1,1.1L979.5,5c-10.8,4.9-22.4,7.8-34.3,8.4c-6.4,0.2-9.6,1.3-9.6,3.3c0,2.2,1.8,3.2,5.4,3.2h13.9c3.3,0,5.4,1,6.2,3.1
	c0.5,0.8,0.8,5.4,0.8,13.8v194.8c0,18.4-0.1,28.3-0.4,29.9c0,3.1-3.6,4.6-10.8,4.6h-10c-2.8,0-4.2,0.8-4.2,2.5
	c0,2.4,1.9,3.5,5.8,3.2c1.5,0,3.1-0.1,4.6-0.2c18.5-0.4,28.8-0.6,30.8-0.6h12c13.1,0.5,19.9,0.8,20.4,0.8h4.6c3.3,0,5-1.2,5-3.5
	C1019.7,266.5,1016.7,265.6,1010.7,265.7 M832.2,151.2c5.1-30.6,18.1-45.9,38.9-45.9c21.1,0,32.1,15.3,33.2,45.9H832.2z
	 M934.8,226.6c-1.8,0-3.2,1-4.2,3.1c-7.2,13-13.9,21.8-20,26.4c-6.1,4.6-14.4,6.9-24.7,6.9c-18,0-31.9-6.9-41.8-20.8
	c-9.9-13.9-14.8-33.6-14.8-59.3c0-8,0.7-16.1,1.9-24c29-0.8,44.5-1.1,46.3-1.1h27c13.6,0.3,24.5-0.3,32.8-1.5
	c-0.8-16.6-7.3-30.2-19.7-40.8c-12.3-10.6-27.6-15.9-45.9-15.9c-22.1,0-40.5,8.5-55.3,25.7c-14.8,17.1-22.2,38.4-22.2,63.9
	c0,24.5,7.8,45,23.3,61.6c15.5,16.6,34.9,24.9,58,24.9c18.5,0,33.3-5.6,44.3-16.8c4.7-4.8,8.7-10.1,12.1-15.9c4-6.5,6-11,6-13.6
	C938,227.5,937,226.6,934.8,226.6 M769.9,189.7c-7.2-6.9-24.2-15.6-50.9-26.1c-17.2-6.7-25.8-16.4-25.8-29.2
	c-0.2-7.7,2.9-15.1,8.5-20.3c5.6-5.4,12.8-8,21.6-8c8.9-0.1,17.6,2.9,24.5,8.5c7.1,5.8,12.3,13.6,14.8,22.4
	c2.3,7.7,4.2,11.6,5.8,11.6c2,0,3.1-1,3.1-3.1v-0.8c-1.5-13.5-2.2-23.3-1.9-29.5V96.8c0-2-0.9-3.1-2.7-3.1c-1.5,0-2.7,1.3-3.4,3.8
	c-1.3,5.1-4.6,7.7-10,7.7c-2.3,0-4.7-0.4-6.9-1.2c-10.2-3.1-17.8-4.6-22.9-4.6c-14.3,0-26.3,4.9-36,14.6
	c-9.7,9.7-14.6,21.7-14.5,36.1c0,21.5,14.3,37.6,42.8,48.3c14.4,5.4,23.1,8.8,26,10.2c3.6,1.9,6.9,4.3,9.8,7.1
	c6.4,5.9,9.6,13.8,9.6,23.8c0,9-2.8,16.1-8.5,21.5s-13.1,8.1-22.4,8.1c-17.2,0-31-6.7-41.2-20.1c-5.2-6.7-8.5-15.9-10-27.8
	c-0.3-2.8-1.4-4.2-3.5-4.2c-1.8,0-2.7,1.4-2.7,4.2v51.3c0,2,0.9,3.1,2.7,3.1c1.8,0,3.2-1.5,4.2-4.6c1.8-4.9,4.4-7.3,8-7.3
	c3.1,0.2,6.1,1.1,8.8,2.7c12.5,6.1,23.1,9.2,31.8,9.2c14.5,0.2,28.5-5.4,38.8-15.5c10.8-10.4,16.3-22.9,16.3-37.8
	c0.2-12.3-4.9-24.2-13.9-32.6 M645.6,189.6c-7.2-6.9-24.2-15.6-50.9-26.1c-17.2-6.7-25.8-16.4-25.8-29.2c-0.2-7.7,2.9-15.1,8.5-20.3
	c5.7-5.4,12.8-8,21.6-8c8.9-0.1,17.6,2.9,24.5,8.5c7.1,5.8,12.3,13.6,14.9,22.4c2.3,7.7,4.2,11.6,5.8,11.6c2,0,3.1-1,3.1-3.1v-0.8
	c-1.5-13.5-2.2-23.3-1.9-29.5V96.8c0-2-0.9-3.1-2.7-3.1c-1.5,0-2.7,1.3-3.4,3.8c-1.3,5.1-4.6,7.7-10,7.7c-2.3,0-4.7-0.4-6.9-1.2
	c-10.2-3.1-17.8-4.6-22.9-4.6c-14.3,0-26.3,4.9-36,14.6c-9.7,9.7-14.6,21.7-14.5,36.1c0,21.5,14.3,37.6,42.8,48.3
	c14.4,5.4,23.1,8.8,26,10.2c3.6,1.9,6.9,4.3,9.8,7.1c6.4,5.9,9.6,13.8,9.6,23.8c0,9-2.8,16.1-8.5,21.5s-13.1,8.1-22.4,8.1
	c-17.2,0-31-6.7-41.2-20.1c-5.1-6.7-8.5-15.9-10-27.8c-0.3-2.8-1.4-4.2-3.5-4.2c-1.8,0-2.7,1.4-2.7,4.2v51.3c0,2,0.9,3.1,2.7,3.1
	c1.8,0,3.2-1.5,4.2-4.6c1.8-4.9,4.4-7.3,8-7.3c3.1,0.2,6.1,1.1,8.8,2.7c12.5,6.1,23.1,9.2,31.8,9.2c14.6,0.3,28.6-5.3,39-15.5
	c10.8-10.4,16.3-22.9,16.3-37.8C659.8,209.9,654.7,198.1,645.6,189.6 M532.3,266.4h-6.9c-5.9,0-9.6-0.8-11.2-2.3
	c-0.8-0.8-1.2-5.2-1.2-13.4v-87.3c0-21.4-2.3-36-6.9-43.6c-8.2-13.5-21.6-20.3-40.1-20.3c-21.1,0-38.3,8.5-51.7,25.7v-18.4
	c0-4.8-0.9-7.3-2.7-7.3c-1.3,0-3.1,1-5.4,3.1c-3.6,3.3-9.9,6.3-18.9,8.8c-8.1,2.4-16.6,3.8-25,4.2c-5.4,0-8.1,1.2-8.1,3.7
	c0,1.9,2.6,2.8,7.7,2.8h11.2c5.9,0,9.1,1.5,9.6,4.6s0.8,19.1,0.8,48.1V258l-1.2,5.7c-0.8,1.8-3.1,2.7-6.9,2.7h-9.6
	c-4.6,0.5-6.9,1.5-6.9,3c0,1.6,1.9,2.3,5.8,2.3h70.1c3.1,0,4.6-0.9,4.6-2.7s-1.3-2.7-3.9-2.7l-11.8-0.4c-5.5-0.2-8.2-1.9-8.2-5
	V141.9c0-5.9,1.3-10.4,3.9-13.8c8.7-11.2,19.5-16.8,32.4-16.8c13.1,0,21.8,5.7,26.2,17.2c2,5.3,3.1,21.9,3.1,49.6v73.3
	c0,7.1-0.4,11.3-1.2,12.4c-0.8,1.2-3.6,1.9-8.5,2.1c-8.5,0.3-13.4,0.5-14.8,0.8c-1.2,0-2.2,1.1-2.1,2.3c0,1.8,1.7,2.7,5,2.7h70.9
	c3.9,0,5.8-1,5.8-2.9C536.2,267.3,534.9,266.4,532.3,266.4 M249,151.2c5.1-30.6,18.1-45.9,38.9-45.9c21.1,0,32.1,15.3,33.1,45.9H249
	z M351.6,226.6c-1.8,0-3.2,1-4.2,3.1c-7.2,13-13.9,21.8-20,26.4S313,263,302.7,263c-18,0-31.9-6.9-41.8-20.8
	c-9.9-13.9-14.8-33.6-14.8-59.3c0-8,0.7-16.1,1.9-24c29-0.8,44.5-1.1,46.3-1.1h27c13.6,0.3,24.5-0.3,32.8-1.5
	c-0.8-16.6-7.3-30.2-19.7-40.8c-12.3-10.6-27.7-15.9-46-15.9c-22.1,0-40.5,8.6-55.3,25.7c-14.8,17.1-22.2,38.4-22.2,63.9
	c0,24.5,7.8,45,23.3,61.6s34.9,24.9,58,24.9c18.5,0,33.3-5.6,44.3-16.8c4.7-4.8,8.7-10.1,12.1-15.9c4-6.5,6-11,6-13.6
	C354.6,227.5,353.6,226.6,351.6,226.6 M124.3,112.5c-10.9,9.2-28.7,13.7-53.4,13.4V28.7c0-5.9,1.5-9.9,4.6-12.2
	c3.1-2.3,8.9-3.5,17.4-3.4c31.9,0,47.8,18.2,47.8,54.7C140.7,88.4,135.2,103.3,124.3,112.5 M211.2,250c-5.6,0-8.5,2.7-8.5,8
	c0.2,2.4,0.8,4.8,1.9,6.9c0.2,0.2,0.4,0.5,0.4,0.8c0,1.5-1.9,2.3-5.8,2.3c-12.3,0-19.5-10.5-21.6-31.5c-3.3-37.1-10.1-62.8-20.2-77
	c-10.2-14.2-28.7-23.6-55.7-28.2c-2.6,0-3.9-0.5-3.9-1.5c0.2-0.5,1.5-0.9,3.9-1.2c24.7-2,44.2-8.9,58.6-20.5s21.6-26.4,21.6-44.2
	c0-18.1-7-32.5-21-43.1c-14-10.6-33-15.9-56.9-15.9c-4.1,0-11.3,0.3-21.6,1c-9.2,0.3-16.4,0.5-21.6,0.5L9.6,5.3
	C8.5,5.1,7.3,4.9,6.2,4.9C2,4.9,0,6.2,0,8.7c0,2.3,3.2,3.4,9.6,3.4c11,0.3,17.7,1.4,19.8,3.5c2.2,2,3.3,8.2,3.3,18.4v211.3
	c0,8.7-0.5,13.6-1.6,14.9c-1,2.8-7.6,4.3-19.7,4.6c-7.4,0.3-11.2,1.3-11.2,3.1c0,2.3,2.8,3.4,8.5,3.4h90.6c4.4,0,6.6-1.1,6.6-3.4
	c0-2-1.7-3.1-5-3.1c-9.5-0.2-15.4-0.5-17.7-0.8c-8.2-1.3-12.3-4.5-12.3-9.6V134c20.3,0.5,34.9,4.2,43.9,10.9
	c9,6.8,14.3,18.3,15.8,34.6c2.8,27.1,4.9,43.9,6.4,50.5c1.4,6.6,4.6,13.5,9.4,20.7c11.3,16.6,27,24.9,47,24.9c18,0,27-5.4,27-16.1
	C220.5,253.1,217.4,250,211.2,250"/>
</svg>
