<svg xmlns="http://www.w3.org/2000/svg" viewBox="0 0 228.46 228.46">
  <defs>
    <style>
      .cls-1 {
        fill: #d61f27;
      }

      .cls-2 {
        fill: #fff;
      }
    </style>
  </defs>
  <title>RF0010-06 Rensselaer Web Favicon</title>
  <g id="Layer_2" data-name="Layer 2">
    <path class="cls-1" d="M205.37,206.49a108.18,108.18,0,1,1-153-153,108.18,108.18,0,1,1,153,153Z" transform="translate(-15.77 -15.77)"/>
  </g>
  <g id="Layer_1" data-name="Layer 1">
    <circle class="cls-1" cx="114.23" cy="114.23" r="114.23"/>
    <path class="cls-1" d="M206.49,206.49a108.18,108.18,0,1,1-153-153,108.18,108.18,0,1,1,153,153Z" transform="translate(-15.77 -15.77)"/>
    <path class="cls-1" d="M130,130" transform="translate(-15.77 -15.77)"/>
    <path class="cls-1" d="M130,130" transform="translate(-15.77 -15.77)"/>
    <path class="cls-2" d="M184.34,183.55a78.7,78.7,0,1,0-108.72,0c-6.76,4-11.84,8.58-15.07,13.66l-.38.57.26,1,0,.13c.22.54.46,1.06.72,1.58l1.9,3.21,6.84,8.26.45.05c.14,0,.76-.71.89-.82,2.88-2.68,5.6-5.55,8.67-8a55.63,55.63,0,0,1,8-5.33q2.07-1.16,4.22-2.14a78.52,78.52,0,0,0,75.26.23,66.06,66.06,0,0,1,9.26,5.35c1.94,1.38,4.25,2.88,6,4.44s3.23,3.09,5.14,4.57c.61.47,1,1.07,1.77,1.14a2.16,2.16,0,0,0,.36,0c.76-.09,1.55-1.52,2-2.09l1.38-1.68,2.47-3,.88-1.07,2-3.25c.55-1.14,1-2.31,1-2.39l.1-.26-.25-.4C196.34,192.18,191.21,187.56,184.34,183.55Zm-33.28,6.71c2.74.65,5.44,1.41,8,2.29a71.82,71.82,0,0,1-58.56-.16q3.94-1.32,8-2.25a3.54,3.54,0,0,0-.17,1c0,.12,0,.25,0,.45.44,2.48,3.23,3.87,7.87,3.93a20.74,20.74,0,0,0,2.54-.16c3.76-.51,7.8-2,8.87-4.68a3.27,3.27,0,0,0,.48-1.49,2,2,0,0,0,0-.33,2.75,2.75,0,0,0-.45-1.09l-.18-.36,2,0h.39c.52,0,1.12,0,1.82.08l-.18.46a3.22,3.22,0,0,0-.41,1.09l0,.18a2.5,2.5,0,0,0,0,.33c.16,2.85,3.66,5.09,9.17,5.84a19.53,19.53,0,0,0,2.53.16c3.49,0,6-.89,7.15-2.44a3.18,3.18,0,0,0,1.16-1.89c0-.12,0-.22,0-.33A3.69,3.69,0,0,0,151.06,190.26ZM130,54.71a71.77,71.77,0,0,1,52.17,22.46H77.83A71.77,71.77,0,0,1,130,54.71Zm31.31,57.38H135.78l.06,0H131V99.83h35.14c0,.25,0,.51,0,.77v11.47h-4.87Zm-69-12.26h35.36v12.26H92.32c0-1.5,0-3,0-4.49C92.34,104.62,92.31,102.06,92.27,99.83ZM137.87,116v54.45l-.34.29a73.1,73.1,0,0,0-16.54.07V116Zm15-19.49H131V83.14h39.43c-.82,0-1.93,3.23-2.18,3.9a38,38,0,0,0-1.52,4.63,16.16,16.16,0,0,0-.4,2.6c0,.7-.07,1.44-.09,2.21ZM79.78,82.32c1.16.78,2.47,1.68,2.62,1.8l.1.09,1,.77c1.8,1.37,3.86,5,4.11,9.56.42,7.66.24,20.3.1,29.53l-.1,11.9a26,26,0,0,0,10.44,20.9c.13.13.27.25.41.37l17.63,15.4v1.64l.07.6a3,3,0,0,1,0,.31c-.14-.26-.28-.51-.44-.75a3.64,3.64,0,0,0-.73-1.3c-.94-.91-1.24-1.11-1.83-1.18a2.31,2.31,0,0,0-.47-.12h-.22l-1.61.13-.33,0h-.37l-.08.06a105.49,105.49,0,0,0-28.2,8.16,71.84,71.84,0,0,1-6.26-100.7l1.18.8Zm64.53,90.85a5.07,5.07,0,0,0-1,1.51l.06-1.12v-.16l0-1.83,17.13-14.84c1.11-.73,10-7.16,10.27-20.8l-.1-11.46v-.13c-.14-9.32-.32-22.09.1-29.83.25-4.61,2.3-8.18,4.1-9.54l1-.78c.23-.18,2.7-1.88,2.7-1.88l2.14-1.44L184,79.16a71.82,71.82,0,0,1-6,101.12,105.17,105.17,0,0,0-28.37-8.13,1,1,0,0,0-.27-.05l-.2,0-.25,0-.21,0-.3-.05-1.87-.16h-.11C145.72,171.91,145.3,172.21,144.31,173.17Z" transform="translate(-15.77 -15.77)"/>
  </g>
</svg>
