<svg id="RPI-logo" xmlns="http://www.w3.org/2000/svg" viewBox="0 0 414.67 88.67">
  <defs>
    <style>
      .cls-1, .cls-2 {
        fill: #fff;
      }

      .cls-2 {
        stroke: #fff;
        stroke-width: 0.25px;
      }
    </style>
  </defs>
  <title>RPI-Web-Logo-White</title>
  <path class="cls-1" d="M190.42,70.85h-3.5v2.06h16.8v-2h-3.83c-1.17,0-1.37-.7-1.37-1.56V42.66c0-2.34-.78-10.46-10-10.46s-11.8,7.26-13.28,9.45h-.32l0-8c0-.94.17-1.4-1.76-.78s-7.66.45-10.78.45v1.39h4.43c.94,0,1.23.13,1.23,1.31V69.54c0,1.17-.29,1.31-1.23,1.31h-3.5v2.06h16.8v-2h-3.95c-1.17,0-1.25-.15-1.25-1.25V48.45c0-4.54,3.95-13.6,11.6-13.6,5.79,0,5.18,7.66,5.18,7.66l0,26.72C191.65,70.4,191.35,70.85,190.42,70.85Z"/>
  <path class="cls-1" d="M95.3,19c0-1-.27-1.44-1.44-1.44h-4.3V15.79H113c1.33,0,15.32-.08,15.32,12.5S116.2,42.08,114,42.62v.24s4.92,1,7.89,4c3.75,3.85,4.45,6.1,4.45,13.13s.55,11.09,4.53,11.09,5.16-2.27,6.41-3.36l1.09,1.56A12.3,12.3,0,0,1,130,73.52c-2.27,0-5.63-.54-9.14-4.37s-3-11.08-3-16.23c0-5.55-5.06-9.74-9-9.74H104.4c-.7,0-1.13.28-1.13,1.14V69.6c0,1.09.08,1.25,1.25,1.25H109V72.9H89.48v-2h4.59c.94,0,1.23-.14,1.23-1.31Zm16,22.11c4.06,0,9.22-1.86,9.22-11.79s-5.07-11.74-8.2-11.74h-8c-.7,0-1.13.27-1.13,1.13V40c0,.86.43,1.13,1.13,1.13Z"/>
  <path class="cls-1" d="M305.32,69.64c0,1.1.08,1.25,1.25,1.25h4.68v2H292.13V70.88h5.09c.94,0,1.23-.14,1.23-1.31V20c0-1.1-.51-1.53-1.52-1.53H291.5V16.91c7.83,0,10.54-.35,13.82-1.24Z"/>
  <path class="cls-1" d="M395.46,36.63c-.19,1.64.44,5.08,3.68,5.08a3.69,3.69,0,0,0,3.91-3.51c.08-1.17,0-6.17-5.62-6.17-4.69,0-8.21,5.47-10.16,9.22h-.37V33.08c0-.22-.07-.55-.58-.41-3.52.72-10.48.79-13.28.79v1.59c1.52,0,5.45.24,5.45.24,1,0,1.52.43,1.52,1.52V69.57c0,1.17-.3,1.31-1.24,1.31h-4.59v2.06h19.46v-2h-5.51c-1.17,0-1.25-.15-1.25-1.25V48.47c0-5.63,4.26-11.39,7-12.45C394.75,35.73,395.57,35.65,395.46,36.63Z"/>
  <path class="cls-1" d="M332,66.75c-.09.14-.28.33-.48.6a14.82,14.82,0,0,1-11.56,5.78c-3,0-10.31-2.66-10.31-10.31,0-10.78,15-13.91,20.62-13.91,1.25,0,1.25-.78,1.25-1.87V38c0-1.57.31-5.32-6.4-5.32s-9.38,3.29-10,3.91-1.56,1.41.15,2a3.52,3.52,0,0,1,2.35,3.6A2.68,2.68,0,0,1,314.93,45a3.66,3.66,0,0,1-3.85-3.8c0-8.28,10.88-10.11,15.73-10.11s11.09,1.56,11.09,8V65s-.31,3.9,2.65,3.9,3.83-3,4.85-5.86h1.25c-.67,3.56-4.07,9.93-8.6,9.93s-5.62-4.54-5.62-5.32c0-.26,0-.65-.05-.92Zm-8.13,2.94c5.31,0,7.65-5.46,7.65-7.81v-10s.47-1.4-1.87-1.4c-8.75,0-14.06,4.37-14.06,10.62C315.56,65,318.53,69.69,323.84,69.69Z"/>
  <path class="cls-1" d="M203.43,59.7h1.36c.63,2.65,4.85,12.82,13.37,12.82s9.3-8.06,9.3-9.39.15-5.78-9.22-7-14.92-5.31-14.92-12.26a12.13,12.13,0,0,1,12.42-12.5,9.75,9.75,0,0,1,8.36,4.06h.39l1.79-2.89h.93V43.68H226c-.54-2.5-3.28-10.88-10.16-10.88s-8.89,5.9-8.89,8.79c0,6.25,10.77,4.74,16.32,7.09s7.26,6.87,7.26,11.56C230.5,64.62,228.24,74,218,74a15.78,15.78,0,0,1-10.46-4.45l-3.13,3.36h-1Z"/>
  <path class="cls-1" d="M163.34,59.84C160.84,68.69,156.52,74,148.26,74a15,15,0,0,1-12.16-6.07C132.89,63.34,131,59,131,53c0-11.62,7.37-22.35,16.44-22.35,8.05,0,15.83,6.84,15.83,15.75,0,.46.06,2.06.06,2.06l-23.19,0c-.7,0-1.13.27-1.13,1.13V60.16c0,3.28,1.17,11.9,10.47,11.9,8.7,0,11.29-9.46,12.44-12.65Zm-7.29-17.72c0-2.27-1-10-8.55-10-7.26,0-8.53,7.12-8.53,10v3.14c0,.86.43,1.13,1.14,1.13h14.8c.71,0,1.14-.27,1.14-1.13Z"/>
  <path class="cls-1" d="M232.16,59.7h1.36c.63,2.65,4.86,12.82,13.37,12.82s9.29-8.06,9.29-9.39.16-5.78-9.21-7-14.92-5.31-14.92-12.26a12.13,12.13,0,0,1,12.42-12.5,9.73,9.73,0,0,1,8.36,4.06h.39L255,32.51h.92V43.68H254.7c-.54-2.5-3.28-10.88-10.15-10.88s-8.9,5.9-8.9,8.79c0,6.25,10.77,4.74,16.31,7.09s7.27,6.87,7.27,11.56C259.23,64.62,257,74,246.74,74a15.76,15.76,0,0,1-10.47-4.45l-3.13,3.36h-1Z"/>
  <path class="cls-1" d="M294.29,59.84C291.8,68.69,287.47,74,279.22,74a15.08,15.08,0,0,1-12.17-6.07c-3.21-4.57-5.12-8.91-5.12-14.89,0-11.62,7.37-22.35,16.45-22.35,8,0,15.82,6.84,15.82,15.75,0,.46.06,2.06.06,2.06l-23.18,0c-.71,0-1.14.27-1.14,1.13V60.16c0,3.28,1.17,11.9,10.47,11.9,8.71,0,11.42-9.51,12.44-12.65ZM287,42.12c0-2.27-1-10-8.54-10-7.27,0-8.53,7.12-8.53,10v3.14c0,.86.42,1.13,1.13,1.13h14.8c.71,0,1.14-.27,1.14-1.13Z"/>
  <path class="cls-1" d="M375.19,59.84C372.69,68.69,368.36,74,360.11,74a15.08,15.08,0,0,1-12.17-6.07c-3.2-4.57-5.11-8.91-5.11-14.89,0-11.62,7.37-22.35,16.44-22.35,8,0,15.82,6.84,15.82,15.75,0,.46.06,2.06.06,2.06L352,48.5c-.71,0-1.14.27-1.14,1.13V60.16c0,3.28,1.18,11.9,10.47,11.9,8.71,0,11.43-9.51,12.44-12.65Zm-7.3-17.72c0-2.27-1-10-8.54-10-7.27,0-8.53,7.12-8.53,10v3.14c0,.86.43,1.13,1.13,1.13h14.81c.7,0,1.13-.27,1.13-1.13Z"/>
  <g>
    <path class="cls-1" d="M46.18,11.42l0,4c0,.64-.16.65-.61.69v.19l2.18,0v-.19c-.45-.05-.6-.06-.59-.71l0-4c.42,0,1.05.09,1.16,1.31h.17V11.21l-3.65-.05,0,1.53H45C45.12,11.47,45.75,11.45,46.18,11.42Z"/>
    <path class="cls-1" d="M24.46,58.1l.16-.1-1.06-1.77-.16.1c.15.38.2.5-.32.82l-1.29.76-.08-.14,1.4-2.31-.61-1h0l-1.34-3.31-1.56.37.07.16c1.21-.08,1.62.42,1.85,1,.15.38.11.52-.2.64l-1.71.7c-.23-.56-.13-.94.72-1.36l-.06-.15-2.38,1,.06.15c.91-.27,1.21-.06,1.42.48l-1.64.67c-.3.12-.37,0-.5-.28-.31-.76-.29-1.23.66-1.77l-.06-.14-1.42.58,1.32,3.25.18-.07c-.09-.27-.17-.51.3-.7l3.41-1.39c.42-.17.53,0,.69.26h0a.26.26,0,0,1,0,.29L21.07,57a1.26,1.26,0,0,0-1.61-.16c-1.1.66-.48,1.8-.26,2.16l1,1.69.17-.1c-.16-.31-.24-.48.32-.82L23.58,58C24.11,57.68,24.2,57.77,24.46,58.1ZM19.92,59c-.22.1-.3.13-.47-.16s-.1-.8.56-1.19c.85-.51,1.16-.32,1.57.36Z"/>
    <path class="cls-1" d="M16.63,51.37l3.52-.83c.48-.12.58,0,.71.38l.19,0-.32-1.35-.18,0c0,.46-.07.61-.6.74L17,51h0l3.39-3.59,0-.17-4.36,1c-.36.08-.54.09-.71-.33l-.18,0,.3,1.27.19,0c-.08-.49.15-.62.6-.73L18.41,48h0l-2.68,2.81L16,52l.19,0C16.2,51.92,16.2,51.82,16.63,51.37Z"/>
    <path class="cls-1" d="M16.35,47c.35,0,1-.09,1.53-1.19l.21-.42c.19-.42.35-.73.86-.77a.79.79,0,0,1,.92.68c.07.77-.76,1.2-1.51,1.39l0,.18,1.87-.18,0-.17c-.12,0-.26,0-.27-.16a4.07,4.07,0,0,0,.16-1.06,1.49,1.49,0,0,0-1.72-1.36,1.65,1.65,0,0,0-1.34.8l-.47.94c-.27.54-.43.67-.84.71a.67.67,0,0,1-.78-.58c-.06-.72.78-1.17,1.3-1.32l0-.17-1.65.15,0,.18c.15,0,.26,0,.28.18a3.34,3.34,0,0,0-.16,1A1.35,1.35,0,0,0,16.35,47Z"/>
    <path class="cls-1" d="M16.07,43.28a1.72,1.72,0,0,0,1.65-1l.26-.4c.25-.39.44-.67.95-.66.1,0,.85.06.83.79s-.89,1.1-1.67,1.2v.18l1.88,0v-.17c-.12,0-.25-.07-.25-.19A3.82,3.82,0,0,0,20,42a1.48,1.48,0,0,0-1.55-1.55,1.6,1.6,0,0,0-1.42.63l-.58.87c-.33.51-.5.62-.92.61a.66.66,0,0,1-.7-.68c0-.71.91-1.06,1.44-1.15V40.6l-1.65-.05v.19c.14,0,.25.06.25.2s-.26.46-.28,1A1.37,1.37,0,0,0,16.07,43.28Z"/>
    <path class="cls-1" d="M15.62,39.1l3.64.59c.46.08.45.27.44.62l.19,0,.58-3.52-1.53-.5,0,.17c1.07.57,1.16,1.21,1.07,1.8-.07.39-.18.49-.51.44l-1.81-.3c.09-.59.37-.86,1.32-.78l0-.16-2.55-.41,0,.15c.92.25,1.06.58,1,1.16l-1.75-.29c-.32-.05-.33-.16-.28-.49.14-.81.39-1.21,1.49-1.17l0-.16L15.38,36l-.57,3.47.19,0C15.07,39.27,15.12,39,15.62,39.1Z"/>
    <path class="cls-1" d="M16.47,34.66,20,35.78c.45.14.41.32.36.66l.18.06,1.07-3.35L20,32.38l-.05.17c.73.53,1.23,1.05,1,1.93-.12.38-.22.49-.57.38l-3.42-1.09c-.64-.21-.59-.39-.48-.8l-.19-.06-.64,2,.18.06C15.9,34.74,16,34.5,16.47,34.66Z"/>
    <path class="cls-1" d="M21.49,32.79l.17.08.55-1.1-.16-.09c-.11.18-.26.43-.52.3a5.38,5.38,0,0,1-.76-.67l.61-1.23a5,5,0,0,1,1,.2c.23.11.18.22.05.57l.17.08.88-1.76-.17-.09c-.12.27-.39.24-1.24.12l-4.19-.57-.08.16L21,31.86C21.39,32.28,21.58,32.47,21.49,32.79Zm-2.35-3,1.93.28-.53,1.06Z"/>
    <path class="cls-1" d="M20.27,26.1l3,2.13c.38.27.29.44.13.75l.16.11,2.05-2.91-1.15-1.12-.1.14a1.59,1.59,0,0,1,.18,2.09c-.23.32-.37.36-.65.17L22.4,26.4c.35-.49.71-.62,1.53-.13l.09-.13-2.1-1.48-.09.13c.72.62.7,1,.36,1.46l-1.45-1c-.26-.19-.22-.3,0-.57.47-.67.88-.92,1.84-.41l.09-.12-1.25-.89-2,2.88.16.11C19.7,26,19.86,25.81,20.27,26.1Z"/>
    <path class="cls-1" d="M23.13,22.54l2.43,2.34c.44.43.37.53.13.87l.14.13,1.43-1.48-.14-.13c-.33.24-.44.32-.88-.1l-1.07-1,.11-.12,2.6.75.86-.9-.14-.13a.27.27,0,0,1-.28.08l-2.41-.63a1.25,1.25,0,0,0-.27-1.59c-.92-.89-1.86,0-2.16.31l-1.36,1.41.14.13C22.52,22.21,22.66,22.09,23.13,22.54Zm.5-1.42c.33-.35.74-.3,1.3.23.71.69.61,1,.06,1.61l-1.4-1.35C23.45,21.43,23.39,21.36,23.63,21.12Z"/>
    <path class="cls-1" d="M27.84,18.19,29.75,21c.24.35.23.48.21.58s0,.06-.23.29l.1.15,1.68-1.15-.11-.16c-.39.18-.49.24-.84-.27l-.8-1.17c.65-.46.91-.64,1.07-1.09a1.34,1.34,0,0,0-.2-1.26,1.37,1.37,0,0,0-2.1-.25l-1.62,1.11.11.16C27.31,17.75,27.48,17.66,27.84,18.19Zm.7-1.24c.41-.29.75-.17,1.24.54s.44,1.12-.17,1.52l-1.16-1.68C28.36,17.19,28.37,17.07,28.54,17Z"/>
    <path class="cls-1" d="M34.82,19.09c1.13-.55,1.46-1.94.76-3.37s-2.06-2-3.12-1.5S31,16.1,31.7,17.6,33.7,19.63,34.82,19.09Zm-2.25-4.64c.77-.37,1.56.74,2,1.74.28.59,1,2.22.09,2.67s-1.75-1.14-2-1.73C32.19,16.12,31.81,14.82,32.57,14.45Z"/>
    <path class="cls-1" d="M36,13.61l1.06,3.53c.14.45,0,.52-.34.67l.05.19,3.37-1-.25-1.73-.17.06c0,.9-.17,1.6-1,1.87-.39.12-.54.09-.64-.25l-1-3.45c-.19-.64,0-.7.39-.84l-.05-.19-2,.61.05.19C35.65,13.19,35.9,13.13,36,13.61Z"/>
    <path class="cls-1" d="M40.34,12.31l1.45,2.35L42,15.77c.08.63-.06.66-.47.78l0,.19,2.09-.3,0-.19c-.43,0-.56,0-.65-.61l-.19-1.39.82-2.51a.51.51,0,0,1,.37-.35l0-.19-1.33.19,0,.18c.29,0,.52,0,.56.27a2.31,2.31,0,0,1-.14.73l-.47,1.49-1-1.65a1.54,1.54,0,0,1-.21-.4c0-.21,0-.27.46-.33l0-.18-2,.28,0,.19A.67.67,0,0,1,40.34,12.31Z"/>
    <path class="cls-1" d="M52.55,15.39l-.17,0c-.56,1.07-1.2,1.17-1.79,1.08-.39-.07-.49-.18-.44-.51l.29-1.82c.6.1.87.37.79,1.33l.16,0,.4-2.54-.16,0c-.23.92-.57,1.07-1.15,1l.28-1.75c.05-.32.17-.33.49-.28.82.13,1.21.39,1.18,1.48l.15,0,.24-1.51-3.47-.56,0,.19c.28.07.53.13.45.62l-.58,3.64c-.08.47-.27.46-.62.45l0,.19,3.52.56Z"/>
    <path class="cls-1" d="M54.59,17.83a2.11,2.11,0,0,0,2-.54l-.12-.24a1.74,1.74,0,0,1-1.65.45,1.06,1.06,0,0,1-.68-.91,4.36,4.36,0,0,1,.26-1.68c.4-1.22,1-2.26,1.83-2,.66.21.87,1.22.87,1.92l.15,0,.55-1.69-.16,0c-.12.16-.22.3-.37.25s-.49-.55-1-.72c-1.22-.39-2.42.47-2.89,1.94S53.24,17.39,54.59,17.83Z"/>
    <path class="cls-1" d="M58.86,14.55l-1.69,3.28c-.21.39-.4.34-.71.24l-.09.17,1.83.94.09-.17c-.27-.19-.46-.32-.24-.73l.8-1.56,1.31.68L59.35,19c-.21.42-.43.34-.73.23l-.09.17,1.83.95h0l1.11.83.12-.16c-.33-.31-.35-.5,0-.95l1.83-2.43h0l-.3,4.93.14.1L65.92,19c.22-.29.35-.41.75-.2l.11-.16-1-.78-.11.15c.37.33.27.58,0,.94l-1.38,1.85h0L64.48,17l-1-.77-.11.15c.06,0,.12.12.08.75L61.26,20c-.3.4-.47.34-.79.17l-.08.11.06-.14c-.26-.19-.43-.32-.22-.72l1.69-3.28c.23-.44.48-.33.73-.23l.08-.17-1.84-1-.08.17c.22.14.46.28.23.73l-.72,1.4L59,16.41,59.74,15c.23-.44.49-.32.73-.22l.09-.17-1.82-.94-.09.16C58.86,14,59.09,14.11,58.86,14.55Z"/>
    <path class="cls-1" d="M67.19,20.11l-2.55,2.66c-.33.34-.52.2-.79,0l-.13.14,1.54,1.48.14-.14c-.23-.26-.39-.44-.05-.79l2.55-2.67c.35-.38.57-.18.79,0l.13-.14-1.54-1.47-.13.13C67.33,19.53,67.53,19.74,67.19,20.11Z"/>
    <path class="cls-1" d="M66.75,26.32a2.06,2.06,0,0,0,1.94.61l0-.26a1.76,1.76,0,0,1-1.64-.52A1.1,1.1,0,0,1,67,25a4.45,4.45,0,0,1,1.13-1.26c1-.81,2-1.37,2.61-.68.44.54.07,1.5-.3,2.08l.09.12,1.38-1.13-.1-.13c-.19.08-.35.13-.45,0s-.11-.72-.46-1.15c-.81-1-2.28-.91-3.48.07S65.85,25.22,66.75,26.32Z"/>
    <path class="cls-1" d="M69,28.84l-.16.09,1,1.86L70,30.7c-.14-.31-.23-.53.19-.77l3.22-1.8c.45-.26.6,0,.76.24l.16-.09-1-1.87-.17.09c.12.26.25.52-.19.77l-3.22,1.8C69.29,29.3,69.14,29.11,69,28.84Z"/>
    <path class="cls-1" d="M74.19,29.64,70.85,31c-.47.18-.58,0-.77-.27l-.17.07.52,1.28L70.6,32c-.11-.44,0-.61.49-.82l2.82-1.15h0l-2.8,4.07.07.16,4.15-1.7c.34-.13.52-.17.75.21l.17-.07-.49-1.21-.18.07c.14.47-.06.64-.48.81L73,33.27h0l2.22-3.19-.49-1.19-.17.07C74.54,29,74.55,29.12,74.19,29.64Z"/>
    <path class="cls-1" d="M75.15,34c-.34.09-1,.25-1.32,1.41l-.14.46c-.13.44-.24.76-.73.89a.8.8,0,0,1-1-.53c-.19-.76.56-1.31,1.28-1.61l0-.18-1.83.46,0,.18c.13,0,.27,0,.3.11a4,4,0,0,0,0,1.07A1.49,1.49,0,0,0,73.6,37.3a1.62,1.62,0,0,0,1.2-1l.32-1c.19-.58.32-.73.72-.83a.66.66,0,0,1,.86.45c.18.7-.58,1.27-1.07,1.5l0,.17,1.6-.41,0-.17c-.15,0-.27,0-.3-.13s.13-.51,0-1A1.37,1.37,0,0,0,75.15,34Z"/>
    <path class="cls-1" d="M75.89,37.69c1.23,0,1.34.6,1.41,1l-4,.45c-.63.07-.66-.07-.76-.51l-.19,0,.25,2.16.18,0c0-.45,0-.6.63-.67l4-.45c0,.42,0,1.05-1.14,1.31v.18L77.8,41l-.4-3.63-1.53.15Z"/>
    <path class="cls-1" d="M77.07,42.33H73.38c-.47,0-.5-.24-.54-.57h-.19v2.13h.19c0-.33,0-.58.54-.58h3.69c.51,0,.52.3.54.59h.19V41.76h-.19C77.59,42,77.57,42.33,77.07,42.33Z"/>
    <path class="cls-1" d="M76.25,44.64c1.2.26,1.16.89,1.14,1.32l-4-.47c-.64-.08-.64-.23-.63-.67l-.19,0L72.34,47l.19,0c.09-.45.12-.59.76-.51l4,.47c-.08.41-.19,1-1.42,1l0,.17,1.53.17.42-3.63-1.51-.2Z"/>
    <path class="cls-1" d="M76.22,49.41l-2.45-.68a1.64,1.64,0,0,0-1.44,0,1.71,1.71,0,0,0-.8,1.06,1.57,1.57,0,0,0,.22,1.3,2.8,2.8,0,0,0,1.32.72l2.34.65c.49.14.53.3.5.64l.18,0,.36-1.29-.18-.06c-.17.5-.44.5-.89.38l-2.24-.62c-.46-.13-1.58-.46-1.3-1.49.24-.85,1.25-.57,1.67-.45l2.45.68c.65.18.6.37.52.76l.18,0,.55-2-.18,0C76.89,49.43,76.84,49.58,76.22,49.41Z"/>
    <path class="cls-1" d="M74.3,53.56c1.06.61.84,1.2.69,1.6l-3.66-1.65c-.58-.27-.53-.41-.39-.83l-.17-.08-.9,2,.17.08c.22-.39.3-.52.89-.26l3.65,1.66c-.19.37-.49.93-1.65.54l-.07.16,1.4.62L75.76,54l-1.39-.64Z"/>
    <path class="cls-1" d="M73,58.19l-3.1-2c-.4-.25-.32-.42-.17-.73l-.16-.11-1.93,3,1.21,1.06.09-.14a1.59,1.59,0,0,1-.27-2.08c.22-.33.35-.38.64-.2l1.55,1c-.33.51-.69.65-1.53.2l-.09.13,2.17,1.39.09-.13c-.75-.59-.75-1-.43-1.44l1.49.95c.28.18.24.29.06.57-.44.69-.84,1-1.83.49l-.08.13,1.29.82,1.9-3-.16-.1C73.52,58.25,73.37,58.46,73,58.19Z"/>
    <path class="cls-1" d="M36.83,69.93a1,1,0,0,0-1.26.7,1,1,0,1,0,1.81.63A1,1,0,0,0,36.83,69.93Z"/>
    <path class="cls-1" d="M42.16,69.62l-.12,0-1.84.52,0,.2a2.7,2.7,0,0,1,.59-.1c.27,0,.21.38.18.57l-.5,2.89c-.08.46-.15.75-.94.61l0,.18,2.54.44,0-.19c-.67-.11-.7-.32-.61-.83Z"/>
    <path class="cls-1" d="M46.18,71.05c0-.43-.21-1.11-1.25-1.17a1.37,1.37,0,0,0-1.63,1.28,1.73,1.73,0,0,0,.88,1.46,1.29,1.29,0,0,0-1.09,1.23,1.31,1.31,0,0,0,1.36,1.36,1.48,1.48,0,0,0,1.69-1.47,2,2,0,0,0-.94-1.68A1.17,1.17,0,0,0,46.18,71.05ZM44.51,75c-.44,0-.62-.53-.59-1.08a1.86,1.86,0,0,1,.4-1.12c.45.37.88.72.85,1.35C45.16,74.3,45.12,75,44.51,75Zm.86-3.9a1.34,1.34,0,0,1-.33.86c-.07,0-.86-.53-.83-1.23a.59.59,0,0,1,.6-.59C45.31,70.13,45.39,70.67,45.37,71.06Z"/>
    <path class="cls-1" d="M48.76,74.05l-1,.06,1-1.24a2.19,2.19,0,0,0,.67-1.68,1.28,1.28,0,0,0-1.36-1.34c-1,.07-1.29,1.21-1.4,1.66l.19,0a.93.93,0,0,1,.79-.74c.71,0,.87.71.88.93.06.89-.7,1.95-1.72,3.34v.17L49.66,75l.21-1.62H49.7C49.54,73.92,49.49,74,48.76,74.05Z"/>
    <path class="cls-1" d="M53.41,72.41l-.42.08-.61-3.24-.54.1c-.45,1-1.1,2.44-1.5,3.62l.15.84,1.68-.31.2,1.08,1-.18-.2-1.08.43-.08Zm-2.8.52,1-2.46h0l.41,2.2Z"/>
    <path class="cls-1" d="M56.06,69.8a1.08,1.08,0,0,0,.73,2,1.08,1.08,0,0,0-.73-2Z"/>
    <path class="cls-2" d="M43.64,46.37a2.62,2.62,0,0,0,1.44,1.93v7.6h2.15V48.32a2.58,2.58,0,0,0,0-4.72V40.48H45.08v3.15a2.56,2.56,0,0,0-1.43,1.89h-.07a.39.39,0,0,0-.37.25.7.7,0,0,0,0,.33.42.42,0,0,0,.4.27Zm1.83,9.19h-.13V48.43h.13Zm1.51,0h-.13v-7.1H47Zm-.13-14.75H47v2.7l-.13,0Zm-1.51,0h.13v2.68l-.13,0Zm.85,2.66A2.49,2.49,0,1,1,43.7,46,2.49,2.49,0,0,1,46.19,43.47Zm-2.6,2.68h0a.2.2,0,0,1-.22-.2c0-.12,0-.17.16-.18h.07a1.77,1.77,0,0,0,0,.23Z"/>
    <path class="cls-1" d="M67.91,66.06c-.36,0-.89.07-1.43.13A5.93,5.93,0,0,0,67.05,65L67,65a13.5,13.5,0,0,0-4.77-4.24l-.61-.32a23.21,23.21,0,1,0-31-.09c-.32.16-.75.38-.77.41A13.5,13.5,0,0,0,25.12,65l0,.05,0,.16a6.13,6.13,0,0,0,.53,1s-1.66-.15-2-.14l-.34,0,.25.24L25.41,68l-.77,2,.52,0a19.83,19.83,0,0,0,3.28,0,11.23,11.23,0,0,0,1.42-.18c.3-.11.51-.17.55-.42a.37.37,0,0,0-.14-.22L29,67.84a17.09,17.09,0,0,1,5.57-3.91l.79-.34A23.24,23.24,0,0,0,57,63.66l.65.27a17.21,17.21,0,0,1,5.46,3.8l-1.24,1.52h0a.34.34,0,0,0-.09.18c0,.25.25.31.55.42.88.26,1.78.12,4.26.22h.63L66.38,68l2-2S68,66.05,67.91,66.06Zm-44.22-23A22.52,22.52,0,1,1,61,60.05a31.5,31.5,0,0,0-9.07-2.68h-.11l-.49,0c-.09,0-.15,0-.44.31a1.67,1.67,0,0,0-.41,1.25,7.36,7.36,0,0,0,.06.8l-.79-.12q.08-.83.12-1.71h0v-.2h0v-.47h-.08a.8.8,0,0,0-.24,0h0L55.39,52a7.55,7.55,0,0,0,3-6.12l0-3.52c0-2.89-.1-6.85,0-9.25a4.45,4.45,0,0,1,1.4-3.2l.26-.2.06,0,.84-.59.72-.48H30.24l.7.47s.8.54.86.6l.31.23a4.45,4.45,0,0,1,1.4,3.2c.13,2.41.07,6.37,0,9.26l0,3.51a7.58,7.58,0,0,0,3.06,6.15l5.82,5.09h-.11v.54l0,.13v0c0,.49.09,1.09.17,1.67l-.65.12-.21,0v-.34a2.78,2.78,0,0,0-.33-1.72c-.29-.28-.34-.3-.43-.31l-.51,0h-.11A31.53,31.53,0,0,0,31.35,60,22.46,22.46,0,0,1,23.69,43.08ZM43,61.33c-.07-.49-.36-2.31-.42-3.48a.07.07,0,0,0,0-.05v0s0-.39,0-.39l.1,0,.5-.07.38,0a20.52,20.52,0,0,1,2.55-.16h0a21,21,0,0,1,2.3.13q.47,0,.9.12h.11l.22,0v.37h0c-.07,1.28-.18,2.48-.32,3.56v.06c-.48,0-2.2-.25-3.19-.25h0A24.42,24.42,0,0,0,43,61.33Zm.18.32c1.05,0,1.8.35,1.82.7v0c0,.43-.95,1.07-2.29,1.22a5.58,5.58,0,0,1-.7,0c-1.05,0-1.81-.35-1.82-.7v0c0-.29.43-.71,1.18-1h0l.09,0,.23-2,.75-.12c0,.2.09.65.24,1.73v.11h.45Zm-8.93-27.2h11.6v4.48H34.26V37.2C34.26,36.23,34.26,35.3,34.23,34.45Zm3.56-2.76a.34.34,0,0,1-.13-.26v0a.27.27,0,0,1,.11-.26.29.29,0,0,1,.18,0h0a.25.25,0,0,1,.18.08.34.34,0,0,1,.07.11h1.21V30.08l-.1-.06a.3.3,0,0,1-.08-.18s0,0,0,0a.28.28,0,0,1,.06-.18.28.28,0,0,1,.26-.12h0a.31.31,0,0,1,.26.13h0a.34.34,0,0,1,.26-.13h0a.31.31,0,0,1,.26.12.33.33,0,0,1,.05.18v0a.26.26,0,0,1-.09.18.33.33,0,0,1-.1.06v1.21h1.21a.21.21,0,0,1,.06-.1.3.3,0,0,1,.18-.08h0a.29.29,0,0,1,.18.05.31.31,0,0,1,.12.26v0a.34.34,0,0,1-.13.26h0a.35.35,0,0,1,.13.27h0a.3.3,0,0,1-.12.26.29.29,0,0,1-.18,0h0a.24.24,0,0,1-.18-.09.21.21,0,0,1-.06-.1h-1.2v1.22a.23.23,0,0,1,.1.07.26.26,0,0,1,.07.17v0a.33.33,0,0,1,0,.18.31.31,0,0,1-.26.12h0a.34.34,0,0,1-.26-.13h0a.33.33,0,0,1-.26.13h0a.28.28,0,0,1-.26-.12.28.28,0,0,1-.06-.18v0a.38.38,0,0,1,.09-.18.3.3,0,0,1,.11-.06V32.09H38.24a.26.26,0,0,1-.07.11.25.25,0,0,1-.18.08h0a.29.29,0,0,1-.18-.05.28.28,0,0,1-.11-.26v0a.34.34,0,0,1,.13-.26Zm5.3,25.18V39.42H49V56.69l-.34.3a21,21,0,0,0-2.57-.15h0A21.92,21.92,0,0,0,43.3,57h0l-.78.12.78-.12ZM54.72,29.73m.76-.41h4.05l-.12.09a3.69,3.69,0,0,0-.91,1.09l-.14.28h-2.1v.55H54.72v-.55H52.94v.55h-1.5v-.55H49.66v.55H48.14v-.55h-2V29.32h2.72m-2.72,4.8V31.94H48v.57H49.8v-.57h1.5v.57h1.78v-.57h1.54v.57h1.79v-.57h1.51a6,6,0,0,0-.18,1.17c0,.31,0,.65,0,1m-5-.66,5,1c0,.55,0,1.14,0,1.75v.15l-5.74-1.73-5.76,1.74V34.45Zm-5.77.71,5.74,1.74v.39l-5.74-1.74-5.76,1.74V36.9Zm0,.94,5.74,1.73v.39l-5.74-1.74-5.76,1.74v-.39Zm0,.93,5.75,1.73v.17H46.16v-.17Zm-3,24.61h.27l.15,0h.12l.24-1.86.78.12.17,2,.22.06c.69.26,1.1.65,1.08.92V63c0,.35-.77.71-1.82.7a5.76,5.76,0,0,1-.7,0c-1.34-.15-2.33-.78-2.29-1.21v0C47.18,62,47.91,61.64,48.94,61.64ZM29.63,69.25a2.05,2.05,0,0,1,.43.13s.07,0,.08.06a7,7,0,0,1-1.92.36,30.87,30.87,0,0,1-3.22,0L25.72,68,24,66.29c.34,0,1.59.14,1.78.15L27.9,69S29.25,69.16,29.63,69.25ZM35,63.43a16.75,16.75,0,0,0-6.95,5.07l-.1.11c-.78-1.1-2-2-2.61-3.52v0a13.92,13.92,0,0,1,5.5-4.57c.22-.12.45-.23.69-.34a31.34,31.34,0,0,1,8.73-2.52h0l.5,0a2.43,2.43,0,0,1,.27.23h0a3.06,3.06,0,0,1,.26,1.54,19.93,19.93,0,0,1-.16,2.32,27.85,27.85,0,0,0-5.29,1.42Zm11.17,2.16a22.33,22.33,0,0,1-10-2.34,26.69,26.69,0,0,1,3.89-1.11l-.11.44a.74.74,0,0,0-.09.33V63c.11.63,1,.91,2.08.92a6.11,6.11,0,0,0,.73,0c1.37-.18,2.48-.73,2.52-1.47,0,0,0,0,0-.07a.77.77,0,0,0-.12-.28l-.3-.6c.41,0,.83,0,1.26,0h0c.32,0,.72,0,1.13.06l-.23.61a.55.55,0,0,0-.1.25s0,0,0,.07c0,.74,1.15,1.28,2.52,1.47a6.25,6.25,0,0,0,.73,0c1.08,0,2-.3,2.08-.93V62.9a.66.66,0,0,0-.11-.36l-.08-.4a25.69,25.69,0,0,1,4,1.17A22.37,22.37,0,0,1,46.21,65.59Zm11-2.09c-.28-.12-.56-.24-.86-.35A27.77,27.77,0,0,0,51,61.67l-.11-1.34c-.05-.48-.13-1-.13-1.45A1.45,1.45,0,0,1,51,57.81a1.79,1.79,0,0,1,.26-.22h0l.53,0h0a30.81,30.81,0,0,1,8.91,2.61l.69.34a14,14,0,0,1,5.33,4.47l0,0c-.6,1.52-1.83,2.41-2.61,3.51L64,68.49A16.65,16.65,0,0,0,57.25,63.5ZM66.08,68l.72,1.87c-1.25,0-1.92,0-3,0a7.12,7.12,0,0,1-1.46-.18,1.19,1.19,0,0,1-.31-.13s0,0,0,0A6.31,6.31,0,0,1,64.17,69h.08l2.11-2.56c.34,0,1.13-.15,1.43-.14Z"/>
    <path class="cls-1" d="M46.37,6.29A36.63,36.63,0,1,0,83,42.91,36.62,36.62,0,0,0,46.37,6.29ZM71.49,68A35.51,35.51,0,1,1,81.9,42.91,35.4,35.4,0,0,1,71.49,68Z"/>
    <path class="cls-1" d="M35.28,36a1.33,1.33,0,0,1,.12.39l0,0h0l0,0,.13.05.13,0a4.82,4.82,0,0,0,1.2.17,6.25,6.25,0,0,0,1-.1,2.43,2.43,0,0,0,.37-.1l.12-.06,0,0s.06,0,.06-.08A1.44,1.44,0,0,1,38.6,36a.84.84,0,0,1,.36-.43.05.05,0,0,0,0,0s0,0,0,0a.37.37,0,0,0-.23-.1.44.44,0,0,0-.28.14.19.19,0,0,0-.11,0,.41.41,0,0,0-.26.13h0v0h0s0,0,0,0l0,0,0,0a.28.28,0,0,1,.09.07.12.12,0,0,1,.05.08,0,0,0,0,1,0,0h0A.27.27,0,0,1,38,36l-.14,0h0c-.14-.08-.17-.15-.17-.2a.11.11,0,0,1,0-.08.13.13,0,0,1,.07,0h0a0,0,0,0,0,0,0,.07.07,0,0,0,0,0,.52.52,0,0,0-.22-.3.49.49,0,0,0-.27-.08l-.18,0s0-.08-.07-.14a.5.5,0,0,0-.08-.12.14.14,0,0,0-.24,0,.82.82,0,0,0-.15.27.45.45,0,0,0-.18,0,.5.5,0,0,0-.28.08.47.47,0,0,0-.21.3,0,0,0,0,0,0,0,0,0,0,0,0,0,0h0a.09.09,0,0,1,.07,0,.1.1,0,0,1,0,.09s0,.11-.17.19h0a.3.3,0,0,1-.13,0,.33.33,0,0,1-.19-.06h0a.08.08,0,0,1,0,0s0-.08.06-.11l0,0h0a.05.05,0,0,0,0,0,.42.42,0,0,0-.26-.14.15.15,0,0,0-.11,0,.44.44,0,0,0-.28-.14.39.39,0,0,0-.24.1,0,0,0,0,0,0,0s0,0,0,0A1,1,0,0,1,35.28,36Zm-.13-.51a.38.38,0,0,1,.24.14.09.09,0,0,0,.07,0,.1.1,0,0,1,.08,0,.29.29,0,0,1,.15.07l-.08.05a.17.17,0,0,0-.06.12.2.2,0,0,0,.09.15.41.41,0,0,0,.24.08.51.51,0,0,0,.2,0,.4.4,0,0,0,.18-.1.22.22,0,0,0,.09-.17.06.06,0,0,0,0,0,.21.21,0,0,0-.05-.12.19.19,0,0,0-.15-.06h0a.39.39,0,0,1,.15-.18.38.38,0,0,1,.23-.06h.19s0,0,0,0l0-.05a1.12,1.12,0,0,1,.1-.18.18.18,0,0,1,0-.07l0,0A.11.11,0,0,1,37,35a.78.78,0,0,1,.11.18.84.84,0,0,0,0,.1,0,0,0,0,0,.06,0h0l.18,0a.42.42,0,0,1,.23.06.46.46,0,0,1,.15.18h0a.17.17,0,0,0-.14.06.34.34,0,0,0-.06.12v0a.21.21,0,0,0,.1.17.46.46,0,0,0,.18.1.51.51,0,0,0,.2,0,.35.35,0,0,0,.22-.08.2.2,0,0,0,.09-.15.21.21,0,0,0,0-.12.19.19,0,0,0-.09-.05.31.31,0,0,1,.16-.07.12.12,0,0,1,.08,0,.06.06,0,0,0,.06,0c.11-.1.18-.14.25-.14a.24.24,0,0,1,.13,0,1,1,0,0,0-.34.43,1.46,1.46,0,0,0-.13.39l-.07-.05a2.17,2.17,0,0,0-.6-.13,7.31,7.31,0,0,0-.8,0,7.45,7.45,0,0,0-1,.07,2.33,2.33,0,0,0-.37.08l-.11.06h0a1.9,1.9,0,0,0-.12-.37,1,1,0,0,0-.34-.43A.22.22,0,0,1,35.15,35.48Z"/>
    <path class="cls-1" d="M38.4,37.84a1.46,1.46,0,0,1,.12.4l0,0h0l.05,0,.13.06.13,0a4.84,4.84,0,0,0,1.2.16,5.23,5.23,0,0,0,1-.1l.37-.09.12-.06,0,0s.06,0,.06-.08a1.59,1.59,0,0,1,.13-.4.86.86,0,0,1,.36-.42.08.08,0,0,0,0,0s0,0,0,0a.41.41,0,0,0-.23-.09.42.42,0,0,0-.28.13l-.11,0a.4.4,0,0,0-.25.12h0s0,0,0,0l0,0h0a.5.5,0,0,1,.08.07.15.15,0,0,1,0,.08.08.08,0,0,1,0,0h0a.27.27,0,0,1-.17.06l-.14,0h0c-.14-.07-.17-.14-.17-.19a.12.12,0,0,1,0-.09l.06,0h0a0,0,0,0,0,.05,0s0,0,0,0a.49.49,0,0,0-.22-.31.57.57,0,0,0-.27-.07l-.18,0a.9.9,0,0,0-.07-.14.57.57,0,0,0-.08-.13.14.14,0,0,0-.24,0,.93.93,0,0,0-.15.27l-.18,0a.58.58,0,0,0-.28.07.52.52,0,0,0-.21.31s0,0,0,0a0,0,0,0,0,0,0h0a.13.13,0,0,1,.07,0,.14.14,0,0,1,.05.09s0,.12-.18.19h0l-.13,0a.28.28,0,0,1-.18-.06h0a.09.09,0,0,1,0,0,.22.22,0,0,1,.06-.1l0-.05h0v0a.08.08,0,0,0,0,0,.38.38,0,0,0-.26-.13.2.2,0,0,0-.11,0,.42.42,0,0,0-.28-.13.44.44,0,0,0-.24.09s0,0,0,0l0,0A.92.92,0,0,1,38.4,37.84Zm-.13-.5a.39.39,0,0,1,.25.13s0,0,.06,0a.1.1,0,0,1,.08,0,.29.29,0,0,1,.15.07l-.08.06a.14.14,0,0,0-.06.11.24.24,0,0,0,.09.16.41.41,0,0,0,.24.08.79.79,0,0,0,.2,0,.77.77,0,0,0,.18-.1.22.22,0,0,0,.09-.17v-.05a.3.3,0,0,0-.06-.11.18.18,0,0,0-.15-.07h0a.35.35,0,0,1,.15-.18.38.38,0,0,1,.23-.06h.19s.05,0,.05,0l0,0c0-.05.06-.12.1-.18l.05-.07s0,0,0,0a.11.11,0,0,1,0,0,.71.71,0,0,1,.11.17.49.49,0,0,1,0,.11,0,0,0,0,0,.06,0h0l.18,0a.42.42,0,0,1,.23.06.4.4,0,0,1,.15.18h0a.17.17,0,0,0-.14.07.3.3,0,0,0-.06.11v0a.21.21,0,0,0,.1.18,1,1,0,0,0,.18.1.88.88,0,0,0,.2,0,.35.35,0,0,0,.22-.08.2.2,0,0,0,.09-.16.16.16,0,0,0,0-.11l-.09-.06a.31.31,0,0,1,.16-.07.12.12,0,0,1,.08,0,0,0,0,0,0,.06,0,.37.37,0,0,1,.25-.13.24.24,0,0,1,.13,0,1,1,0,0,0-.34.43,2,2,0,0,0-.13.39.18.18,0,0,0-.07-.05,2.09,2.09,0,0,0-.6-.13A5.46,5.46,0,0,0,40,38a6,6,0,0,0-.95.07,2.33,2.33,0,0,0-.37.08.39.39,0,0,0-.11.06h0a1.55,1.55,0,0,0-.12-.37,1,1,0,0,0-.34-.43A.24.24,0,0,1,38.27,37.34Z"/>
    <path class="cls-1" d="M41.47,36a1.59,1.59,0,0,1,.13.4s0,0,0,0h0l0,0,.13.06.14,0a4.69,4.69,0,0,0,1.19.16,5.15,5.15,0,0,0,1-.1l.37-.09.12-.06,0,0a.17.17,0,0,0,.06-.08,1.46,1.46,0,0,1,.12-.4,1,1,0,0,1,.36-.43s0,0,0,0,0,0,0,0a.44.44,0,0,0-.24-.09.42.42,0,0,0-.28.13.14.14,0,0,0-.11,0,.37.37,0,0,0-.25.12h0l0,0,0,0h0l.09.07a.12.12,0,0,1,0,.08.08.08,0,0,1,0,0h0a.25.25,0,0,1-.17.06l-.13,0h0c-.15-.07-.18-.14-.18-.19a.12.12,0,0,1,0-.09l.06,0h0a0,0,0,0,0,.05,0s0,0,0,0a.52.52,0,0,0-.21-.31.51.51,0,0,0-.28-.07l-.18,0a.73.73,0,0,0-.06-.14L43.25,35A.14.14,0,0,0,43,35a1.25,1.25,0,0,0-.15.27l-.18,0a.48.48,0,0,0-.27.07.53.53,0,0,0-.22.31s0,0,0,0,0,0,0,0h0l.08,0a.18.18,0,0,1,0,.09s0,.12-.18.19h0l-.13,0a.29.29,0,0,1-.19-.06h0a.09.09,0,0,1,0,0,.18.18,0,0,1,.07-.1l0-.05h0v0a.06.06,0,0,0,0,0,.43.43,0,0,0-.27-.13.17.17,0,0,0-.11,0,.42.42,0,0,0-.28-.13.41.41,0,0,0-.23.09.05.05,0,0,0,0,0s0,0,0,0A.93.93,0,0,1,41.47,36Zm-.13-.5a.39.39,0,0,1,.25.13,0,0,0,0,0,.06,0,.12.12,0,0,1,.08,0,.26.26,0,0,1,.15.07l-.08.06a.16.16,0,0,0,0,.11.2.2,0,0,0,.09.16.31.31,0,0,0,.24.07l.2,0a1,1,0,0,0,.17-.1.22.22,0,0,0,.09-.17v-.05a.3.3,0,0,0-.06-.11.17.17,0,0,0-.14-.07h0a.55.55,0,0,1,.15-.18.48.48,0,0,1,.23,0h.19a0,0,0,0,0,.06,0,.1.1,0,0,1,0,0,1,1,0,0,1,.09-.18l.05-.07a.06.06,0,0,1,0,0l.06,0a1.28,1.28,0,0,1,.1.17l.05.11s0,0,0,0h0l.18,0a.48.48,0,0,1,.23,0,.45.45,0,0,1,.15.18h0a.18.18,0,0,0-.15.07.3.3,0,0,0-.06.11v0a.24.24,0,0,0,.1.18l.19.1.19,0a.32.32,0,0,0,.23-.07.2.2,0,0,0,.09-.16.14.14,0,0,0-.06-.11l-.08-.06a.26.26,0,0,1,.15-.07.1.1,0,0,1,.08,0s0,0,.06,0a.39.39,0,0,1,.25-.13.24.24,0,0,1,.13,0,1,1,0,0,0-.34.43,2.13,2.13,0,0,0-.13.38l-.06,0a2.64,2.64,0,0,0-.61-.14,7.26,7.26,0,0,0-.8,0,6,6,0,0,0-1,.07,2.18,2.18,0,0,0-.36.08.34.34,0,0,0-.12.06h0a1.2,1.2,0,0,0-.12-.37,1,1,0,0,0-.34-.43A.24.24,0,0,1,41.34,35.52Z"/>
  </g>
</svg>
