<svg id="Layer_1" data-name="Layer 1" xmlns="http://www.w3.org/2000/svg" viewBox="0 0 93.2 90.46">
  <defs>
    <style>
      .cls-1, .cls-2 {
        fill: #fff;
      }

      .cls-2 {
        stroke: #fff;
        stroke-width: 0.25px;
      }
    </style>
  </defs>
  <title>RPI-Web-Seal-White</title>
  <g>
    <path class="cls-1" d="M46.18,13.75l0,4c0,.64-.16.65-.61.7v.19l2.18,0v-.19c-.45,0-.6-.06-.59-.71l0-4c.42,0,1.05.08,1.16,1.3h.17V13.53l-3.65,0,0,1.53H45C45.12,13.8,45.75,13.77,46.18,13.75Z"/>
    <path class="cls-1" d="M24.46,60.42l.16-.1-1.06-1.77-.16.1c.15.38.2.51-.32.82l-1.29.77-.08-.14,1.4-2.31-.61-1h0l-1.34-3.3-1.56.37.07.16c1.21-.08,1.62.42,1.85,1,.15.37.11.51-.2.64l-1.71.69c-.23-.55-.13-.93.72-1.36l-.06-.14-2.38,1,.06.14c.91-.27,1.21-.06,1.42.49l-1.64.67c-.3.12-.37,0-.5-.28C16.93,56,17,55.55,17.9,55l-.06-.14-1.42.58,1.32,3.26.18-.07c-.09-.27-.17-.51.3-.7l3.41-1.39c.42-.17.53,0,.69.26h0a.26.26,0,0,1,0,.29l-1.24,2.17a1.25,1.25,0,0,0-1.61-.15c-1.1.65-.48,1.79-.26,2.16l1,1.68.17-.1c-.16-.31-.24-.48.32-.81l2.89-1.73C24.11,60,24.2,60.1,24.46,60.42Zm-4.54.94c-.22.1-.3.13-.47-.16s-.1-.8.56-1.2c.85-.51,1.16-.32,1.57.36Z"/>
    <path class="cls-1" d="M16.63,53.69l3.52-.83c.48-.11.58,0,.71.38l.19,0-.32-1.35-.18,0c0,.46-.07.62-.6.74l-3,.71v0l3.39-3.58,0-.17L16,50.6c-.36.08-.54.09-.71-.32l-.18,0,.3,1.28.19-.05c-.08-.49.15-.61.6-.72l2.24-.53h0l-2.68,2.8L16,54.37l.19,0C16.2,54.25,16.2,54.15,16.63,53.69Z"/>
    <path class="cls-1" d="M16.35,49.28c.35,0,1-.1,1.53-1.19l.21-.43c.19-.42.35-.72.86-.77.1,0,.85,0,.92.68s-.76,1.21-1.51,1.4l0,.17L20.25,49l0-.18c-.12,0-.26,0-.27-.15a4.15,4.15,0,0,0,.16-1.06,1.49,1.49,0,0,0-1.72-1.36,1.65,1.65,0,0,0-1.34.79l-.47,1c-.27.54-.43.67-.84.7a.65.65,0,0,1-.78-.58c-.06-.72.78-1.16,1.3-1.32l0-.17-1.65.15,0,.18c.15,0,.26,0,.28.18a3.49,3.49,0,0,0-.16,1A1.36,1.36,0,0,0,16.35,49.28Z"/>
    <path class="cls-1" d="M16.07,45.6a1.7,1.7,0,0,0,1.65-1l.26-.4c.25-.39.44-.68.95-.66.1,0,.85.05.83.78s-.89,1.11-1.67,1.21v.17l1.88.06v-.18c-.12,0-.25-.06-.25-.19a3.71,3.71,0,0,0,.29-1,1.5,1.5,0,0,0-1.55-1.56,1.65,1.65,0,0,0-1.42.63l-.58.88c-.33.5-.5.61-.92.6a.65.65,0,0,1-.7-.67c0-.72.91-1.06,1.44-1.15v-.17l-1.65,0v.18c.14,0,.25.07.25.21s-.26.45-.28.94A1.36,1.36,0,0,0,16.07,45.6Z"/>
    <path class="cls-1" d="M15.62,41.43l3.64.59c.46.07.45.27.44.61l.19,0,.58-3.52-1.53-.5,0,.17C20,39.39,20.08,40,20,40.62c-.07.39-.18.49-.51.43l-1.81-.29c.09-.6.37-.87,1.32-.79l0-.15-2.55-.42,0,.16c.92.24,1.06.58,1,1.15l-1.75-.28c-.32,0-.33-.17-.28-.5.14-.81.39-1.21,1.49-1.17l0-.15-1.51-.25-.57,3.47.19,0C15.07,41.59,15.12,41.34,15.62,41.43Z"/>
    <path class="cls-1" d="M16.47,37,20,38.11c.45.14.41.32.36.66l.18.06,1.07-3.36L20,34.71l-.05.17c.73.53,1.23,1,1,1.92-.12.39-.22.5-.57.39l-3.42-1.1c-.64-.2-.59-.38-.48-.8l-.19-.06-.64,2,.18.06C15.9,37.07,16,36.83,16.47,37Z"/>
    <path class="cls-1" d="M21.49,35.12l.17.08.55-1.11L22.05,34c-.11.18-.26.43-.52.3a5.07,5.07,0,0,1-.76-.68l.61-1.23a5.67,5.67,0,0,1,1,.21c.23.11.18.21.05.56l.17.09.88-1.77-.17-.08c-.12.27-.39.24-1.24.12L17.91,31l-.08.15L21,34.18C21.39,34.6,21.58,34.8,21.49,35.12Zm-2.35-3,1.93.27-.53,1.07Z"/>
    <path class="cls-1" d="M20.27,28.43l3,2.12c.38.28.29.44.13.75l.16.11,2.05-2.91-1.15-1.11-.1.14a1.59,1.59,0,0,1,.18,2.09c-.23.32-.37.36-.65.17l-1.5-1.07c.35-.49.71-.61,1.53-.12l.09-.13L21.92,27l-.09.12c.72.62.7,1,.36,1.46l-1.45-1c-.26-.18-.22-.29,0-.56.47-.68.88-.92,1.84-.41l.09-.12-1.25-.89-2,2.87.16.11C19.7,28.34,19.86,28.14,20.27,28.43Z"/>
    <path class="cls-1" d="M23.13,24.87l2.43,2.33c.44.43.37.54.13.88l.14.13,1.43-1.49-.14-.13c-.33.25-.44.33-.88-.1l-1.07-1,.11-.12,2.6.75.86-.9-.14-.13a.26.26,0,0,1-.28.07l-2.41-.62a1.25,1.25,0,0,0-.27-1.59c-.92-.89-1.86,0-2.16.3l-1.36,1.42.14.13C22.52,24.54,22.66,24.41,23.13,24.87Zm.5-1.42c.33-.35.74-.31,1.3.23.71.68.61,1,.06,1.61l-1.4-1.35C23.45,23.75,23.39,23.69,23.63,23.45Z"/>
    <path class="cls-1" d="M27.84,20.51l1.91,2.77c.24.35.23.49.21.58s0,.07-.23.29l.1.16,1.68-1.16L31.4,23c-.39.18-.49.23-.84-.28l-.8-1.16c.65-.46.91-.65,1.07-1.09A1.43,1.43,0,0,0,28.53,19l-1.62,1.11.11.16C27.31,20.07,27.48,20,27.84,20.51Zm.7-1.24c.41-.28.75-.17,1.24.55s.44,1.11-.17,1.52l-1.16-1.68A.25.25,0,0,1,28.54,19.27Z"/>
    <path class="cls-1" d="M34.82,21.42c1.13-.55,1.46-1.94.76-3.38s-2.06-2-3.12-1.49S31,18.43,31.7,19.92,33.7,22,34.82,21.42Zm-2.25-4.65c.77-.37,1.56.74,2,1.74.28.6,1,2.22.09,2.68s-1.75-1.14-2-1.74C32.19,18.45,31.81,17.15,32.57,16.77Z"/>
    <path class="cls-1" d="M36,15.94l1.06,3.53c.14.44,0,.52-.34.67l.05.18,3.37-1-.25-1.73-.17.05c0,.9-.17,1.61-1,1.87-.39.12-.54.1-.64-.25l-1-3.44c-.19-.64,0-.71.39-.85l-.05-.18-2,.61.05.18C35.65,15.52,35.9,15.46,36,15.94Z"/>
    <path class="cls-1" d="M40.34,14.64,41.79,17,42,18.1c.08.63-.06.66-.47.77l0,.19,2.09-.29,0-.19c-.43,0-.56,0-.65-.61l-.19-1.4.82-2.5a.51.51,0,0,1,.37-.35l0-.19-1.33.19,0,.18c.29,0,.52,0,.56.26a2.32,2.32,0,0,1-.14.74l-.47,1.49-1-1.65a1.72,1.72,0,0,1-.21-.4c0-.22,0-.27.46-.33l0-.19-2,.28,0,.19C40.1,14.27,40.3,14.58,40.34,14.64Z"/>
    <path class="cls-1" d="M52.55,17.72l-.17,0c-.56,1.07-1.2,1.17-1.79,1.07-.39-.06-.49-.17-.44-.5l.29-1.82c.6.09.87.37.79,1.32l.16,0,.4-2.55-.16,0c-.23.92-.57,1.07-1.15,1l.28-1.74c.05-.32.17-.34.49-.28.82.13,1.21.38,1.18,1.47l.15,0,.24-1.52-3.47-.55,0,.19c.28.07.53.12.45.62l-.58,3.64c-.08.46-.27.45-.62.44l0,.19,3.52.57Z"/>
    <path class="cls-1" d="M54.59,20.15a2.06,2.06,0,0,0,2-.54l-.12-.23a1.77,1.77,0,0,1-1.65.45,1.09,1.09,0,0,1-.68-.92,4.31,4.31,0,0,1,.26-1.67c.4-1.23,1-2.27,1.83-2,.66.21.87,1.22.87,1.91l.15.05.55-1.7-.16,0c-.12.17-.22.3-.37.25s-.49-.55-1-.72c-1.22-.39-2.42.47-2.89,2S53.24,19.71,54.59,20.15Z"/>
    <path class="cls-1" d="M58.86,16.88l-1.69,3.27c-.21.4-.4.35-.71.24l-.09.17,1.83,1,.09-.17c-.27-.19-.46-.32-.24-.74l.8-1.55,1.31.67-.81,1.56c-.21.41-.43.34-.73.23l-.09.17,1.83.94v0l1.11.82.12-.15c-.33-.32-.35-.51,0-.95l1.83-2.44h0l-.3,4.93.14.1,2.68-3.59c.22-.3.35-.42.75-.21l.11-.15-1-.79-.11.16c.37.33.27.57,0,.94l-1.38,1.85h0l.25-3.87-1-.77-.11.15c.06,0,.12.13.08.75l-2.16,2.9c-.3.4-.47.34-.79.16l-.08.11.06-.13c-.26-.2-.43-.32-.22-.73l1.69-3.27c.23-.44.48-.34.73-.24l.08-.16-1.84-1-.08.17c.22.15.46.29.23.74l-.72,1.4L59,18.73l.73-1.4c.23-.45.49-.33.73-.23l.09-.16-1.82-1-.09.17C58.86,16.3,59.09,16.44,58.86,16.88Z"/>
    <path class="cls-1" d="M67.19,22.43,64.64,25.1c-.33.34-.52.2-.79,0l-.13.14,1.54,1.47.14-.14c-.23-.25-.39-.44-.05-.79l2.55-2.67c.35-.37.57-.17.79,0l.13-.14-1.54-1.47-.13.14C67.33,21.86,67.53,22.07,67.19,22.43Z"/>
    <path class="cls-1" d="M66.75,28.65a2.09,2.09,0,0,0,1.94.61l0-.27a1.78,1.78,0,0,1-1.64-.51A1.1,1.1,0,0,1,67,27.34a4.64,4.64,0,0,1,1.13-1.27c1-.81,2-1.36,2.61-.68s.07,1.5-.3,2.08l.09.12,1.38-1.13-.1-.12c-.19.07-.35.13-.45,0s-.11-.72-.46-1.14c-.81-1-2.28-.92-3.48.06S65.85,27.55,66.75,28.65Z"/>
    <path class="cls-1" d="M69,31.16l-.16.1,1,1.85L70,33c-.14-.3-.23-.53.19-.77l3.22-1.8c.45-.25.6,0,.76.25l.16-.1-1-1.86-.17.09c.12.26.25.52-.19.76l-3.22,1.8C69.29,31.62,69.14,31.43,69,31.16Z"/>
    <path class="cls-1" d="M74.19,32l-3.34,1.36c-.47.19-.58.05-.77-.27l-.17.07.52,1.29.17-.08c-.11-.44,0-.61.49-.82l2.82-1.15v0l-2.8,4.06.07.16,4.15-1.69c.34-.14.52-.17.75.21l.17-.07-.49-1.22-.18.08c.14.47-.06.63-.48.81L73,35.6v0l2.22-3.18-.49-1.19-.17.07C74.54,31.35,74.55,31.45,74.19,32Z"/>
    <path class="cls-1" d="M75.15,36.29c-.34.08-1,.24-1.32,1.41l-.14.45c-.13.44-.24.77-.73.89a.79.79,0,0,1-1-.53c-.19-.75.56-1.3,1.28-1.61l0-.17-1.83.46,0,.17c.13,0,.27,0,.3.11a4.05,4.05,0,0,0,0,1.08,1.5,1.5,0,0,0,1.91,1.08,1.62,1.62,0,0,0,1.2-1l.32-1c.19-.58.32-.73.72-.83a.66.66,0,0,1,.86.46c.18.69-.58,1.26-1.07,1.5l0,.16,1.6-.4,0-.17c-.15,0-.27,0-.3-.14s.13-.51,0-1A1.36,1.36,0,0,0,75.15,36.29Z"/>
    <path class="cls-1" d="M75.89,40c1.23,0,1.34.6,1.41,1l-4,.45c-.63.07-.66-.08-.76-.51l-.19,0,.25,2.16.18,0c0-.45,0-.6.63-.67l4-.45c0,.42,0,1-1.14,1.3v.18l1.52-.18-.4-3.64-1.53.16Z"/>
    <path class="cls-1" d="M77.07,44.65H73.38c-.47,0-.5-.24-.54-.57h-.19v2.14h.19c0-.34,0-.58.54-.58h3.69c.51,0,.52.29.54.58h.19V44.09h-.19C77.59,44.37,77.57,44.65,77.07,44.65Z"/>
    <path class="cls-1" d="M76.25,47c1.2.27,1.16.89,1.14,1.33l-4-.48c-.64-.07-.64-.22-.63-.67l-.19,0-.25,2.16.19,0c.09-.44.12-.58.76-.51l4,.47c-.08.42-.19,1-1.42,1l0,.18,1.53.17L77.79,47l-1.51-.2Z"/>
    <path class="cls-1" d="M76.22,51.73l-2.45-.68a1.68,1.68,0,0,0-1.44,0,1.71,1.71,0,0,0-.8,1.06,1.59,1.59,0,0,0,.22,1.31,2.8,2.8,0,0,0,1.32.72l2.34.65c.49.14.53.29.5.63l.18,0,.36-1.29-.18,0c-.17.49-.44.5-.89.38l-2.24-.63c-.46-.13-1.58-.45-1.3-1.49.24-.84,1.25-.56,1.67-.44l2.45.68c.65.18.6.36.52.76l.18,0,.55-2L77,51.44C76.89,51.76,76.84,51.9,76.22,51.73Z"/>
    <path class="cls-1" d="M74.3,55.89c1.06.61.84,1.19.69,1.6l-3.66-1.66c-.58-.26-.53-.4-.39-.82l-.17-.08-.9,2L70,57c.22-.4.3-.53.89-.26l3.65,1.66c-.19.37-.49.92-1.65.53l-.07.16,1.4.63,1.5-3.34-1.39-.65Z"/>
    <path class="cls-1" d="M73,60.51l-3.1-2c-.4-.25-.32-.42-.17-.74l-.16-.1-1.93,3,1.21,1.06.09-.15a1.59,1.59,0,0,1-.27-2.08c.22-.33.35-.38.64-.19l1.55,1c-.33.51-.69.65-1.53.19l-.09.14L71.36,62l.09-.13c-.75-.59-.75-1-.43-1.45l1.49,1c.28.17.24.28.06.57-.44.69-.84,1-1.83.48l-.08.13,1.29.83,1.9-3-.16-.11C73.52,60.58,73.37,60.79,73,60.51Z"/>
    <path class="cls-1" d="M36.83,72.26a1,1,0,0,0-1.26.7,1,1,0,1,0,1.26-.7Z"/>
    <path class="cls-1" d="M42.16,71.94l-.12,0-1.84.52,0,.2a2.53,2.53,0,0,1,.59-.09c.27,0,.21.37.18.56L40.43,76c-.08.47-.15.76-.94.61l0,.18,2.54.44,0-.18c-.67-.11-.7-.33-.61-.83Z"/>
    <path class="cls-1" d="M46.18,73.38c0-.43-.21-1.12-1.25-1.17a1.36,1.36,0,0,0-1.63,1.27,1.72,1.72,0,0,0,.88,1.46,1.3,1.3,0,0,0,.27,2.59,1.47,1.47,0,0,0,1.69-1.46,2,2,0,0,0-.94-1.68C45.58,74.27,46.15,74,46.18,73.38Zm-1.67,3.91c-.44,0-.62-.53-.59-1.08a1.81,1.81,0,0,1,.4-1.12c.45.37.88.72.85,1.34C45.16,76.63,45.12,77.32,44.51,77.29Zm.86-3.91a1.32,1.32,0,0,1-.33.86c-.07,0-.86-.52-.83-1.23a.61.61,0,0,1,.6-.59C45.31,72.45,45.39,73,45.37,73.38Z"/>
    <path class="cls-1" d="M48.76,76.37l-1,.07,1-1.24a2.19,2.19,0,0,0,.67-1.68,1.28,1.28,0,0,0-1.36-1.34c-1,.06-1.29,1.21-1.4,1.65h.19c.21-.66.64-.73.79-.74.71,0,.87.71.88.92.06.9-.7,2-1.72,3.34v.17l2.84-.18.21-1.62H49.7C49.54,76.24,49.49,76.32,48.76,76.37Z"/>
    <path class="cls-1" d="M53.41,74.74l-.42.07-.61-3.24-.54.1c-.45,1-1.1,2.45-1.5,3.62l.15.85,1.68-.31.2,1.07,1-.18-.2-1.07.43-.09Zm-2.8.52,1-2.47h0L52,75Z"/>
    <path class="cls-1" d="M56.06,72.13a1.07,1.07,0,0,0,.73,2,1.07,1.07,0,0,0-.73-2Z"/>
    <path class="cls-2" d="M43.64,48.7a2.6,2.6,0,0,0,1.44,1.92v7.6h2.15V50.65a2.58,2.58,0,0,0,0-4.72V42.8H45.08V46a2.58,2.58,0,0,0-1.43,1.89h-.07a.4.4,0,0,0-.37.25.74.74,0,0,0,0,.34.43.43,0,0,0,.4.27Zm1.83,9.19h-.13V50.75h.13Zm1.51,0h-.13V50.78H47Zm-.13-14.75H47v2.69l-.13,0Zm-1.51,0h.13v2.67l-.13.06Zm.85,2.66a2.49,2.49,0,1,1-2.49,2.49A2.48,2.48,0,0,1,46.19,45.8Zm-2.6,2.67h0c-.15,0-.2-.07-.22-.2s0-.16.16-.17h.07a1.62,1.62,0,0,0,0,.22Z"/>
    <path class="cls-1" d="M67.91,68.38c-.36,0-.89.07-1.43.13a5.93,5.93,0,0,0,.57-1.18l0,0a13.41,13.41,0,0,0-4.77-4.24l-.61-.32a23.21,23.21,0,1,0-31-.1c-.32.17-.75.39-.77.42a13.41,13.41,0,0,0-4.77,4.24l0,0,0,.16a6.13,6.13,0,0,0,.53,1s-1.66-.15-2-.14l-.34,0,.25.25,1.81,1.75-.77,2,.52,0a21,21,0,0,0,3.28,0c.55-.08,1.11-.09,1.42-.18s.51-.17.55-.42a.34.34,0,0,0-.14-.22L29,70.16a16.93,16.93,0,0,1,5.57-3.9l.79-.35A23.24,23.24,0,0,0,57,66l.65.28a17.19,17.19,0,0,1,5.46,3.79l-1.24,1.52h0a.38.38,0,0,0-.09.19c0,.25.25.31.55.41.88.27,1.78.12,4.26.22h.63l-.79-2.06,2-2Zm-44.22-23A22.52,22.52,0,1,1,61,62.38,31.5,31.5,0,0,0,51.9,59.7l-.11,0-.49,0c-.09,0-.15,0-.44.31a1.68,1.68,0,0,0-.41,1.25,7.36,7.36,0,0,0,.06.81l-.79-.13c.05-.54.09-1.11.12-1.7h0V60h0V59.5l-.08,0-.24,0h0l5.85-5.06a7.58,7.58,0,0,0,3-6.13l0-3.52c0-2.89-.1-6.84,0-9.25a4.49,4.49,0,0,1,1.4-3.2l.26-.19.06,0,.84-.58.72-.48H30.24l.7.48.86.59.31.24a4.43,4.43,0,0,1,1.4,3.2c.13,2.41.07,6.37,0,9.25l0,3.52a7.6,7.6,0,0,0,3.06,6.15l5.82,5.08-.08,0h0v.55l0,.13h0c0,.49.09,1.1.17,1.67l-.65.12-.21,0v-.34A2.75,2.75,0,0,0,41.28,60c-.29-.28-.34-.3-.43-.32l-.51,0h-.11a31.87,31.87,0,0,0-8.88,2.59A22.43,22.43,0,0,1,23.69,45.4ZM43,63.66c-.07-.49-.36-2.32-.42-3.49a.09.09,0,0,0,0-.05v0s0-.38,0-.38l.1,0,.5-.08.38,0a20.52,20.52,0,0,1,2.55-.16h0a21,21,0,0,1,2.3.13l.9.11.11,0,.22,0v.38h0c-.07,1.29-.18,2.49-.32,3.57v.06c-.48-.06-2.2-.25-3.19-.25h0A24.35,24.35,0,0,0,43,63.66Zm.18.32c1.05,0,1.8.34,1.82.7v0c0,.43-.95,1.06-2.29,1.21a5.62,5.62,0,0,1-.7,0c-1.05,0-1.81-.35-1.82-.7v0c0-.3.43-.71,1.18-1h0l.09,0,.23-2,.75-.12c0,.19.09.64.24,1.72V64h.45Zm-8.93-27.2h11.6v4.47H34.26V39.52C34.26,38.56,34.26,37.62,34.23,36.78ZM37.79,34a.33.33,0,0,1-.13-.26h0a.29.29,0,0,1,.11-.27.38.38,0,0,1,.18,0h0a.31.31,0,0,1,.25.2h1.21V32.41l-.1-.07a.25.25,0,0,1-.08-.18s0,0,0,0a.31.31,0,0,1,.06-.18.28.28,0,0,1,.26-.12h0a.35.35,0,0,1,.26.14h0a.39.39,0,0,1,.26-.14h0a.31.31,0,0,1,.26.12.38.38,0,0,1,.05.18v0a.23.23,0,0,1-.09.18l-.1.07v1.21h1.21a.21.21,0,0,1,.06-.1.25.25,0,0,1,.18-.08h0a.31.31,0,0,1,.18.06.28.28,0,0,1,.12.26h0a.33.33,0,0,1-.13.26h0a.34.34,0,0,1,.13.26h0a.32.32,0,0,1-.12.27.38.38,0,0,1-.18,0h0a.24.24,0,0,1-.18-.09.24.24,0,0,1-.06-.11h-1.2v1.22a.21.21,0,0,1,.1.06.29.29,0,0,1,.07.18v0a.38.38,0,0,1,0,.18.31.31,0,0,1-.26.12h0a.35.35,0,0,1-.26-.14h0a.33.33,0,0,1-.26.14h0a.28.28,0,0,1-.26-.12.31.31,0,0,1-.06-.18v0a.31.31,0,0,1,.09-.18l.11-.07V34.42H38.24a.23.23,0,0,1-.07.1.26.26,0,0,1-.18.09h0a.38.38,0,0,1-.18,0,.29.29,0,0,1-.11-.27h0a.33.33,0,0,1,.13-.26h0Zm5.3,25.19V41.75H49V59l-.34.29a23.24,23.24,0,0,0-2.57-.15h0a21.85,21.85,0,0,0-2.77.18h0c-.23,0-.59.08-.78.12.19,0,.55-.1.78-.12ZM54.72,32.06m.76-.42h4.05l-.12.1a3.69,3.69,0,0,0-.91,1.09l-.14.27h-2.1v.55H54.72V33.1H52.94v.55h-1.5V33.1H49.66v.55H48.14V33.1h-2V31.64h2.72m-2.72,4.81V34.26H48v.58H49.8v-.58h1.5v.58h1.78v-.58h1.54v.58h1.79v-.58h1.51a6,6,0,0,0-.18,1.18c0,.31,0,.65,0,1m-5-.67,5,1c0,.55,0,1.14,0,1.75v.15L51.92,37l-5.76,1.73v-1.9Zm-5.77.71,5.74,1.73v.39l-5.74-1.73-5.76,1.73v-.38Zm0,.93,5.74,1.74v.38l-5.74-1.73-5.76,1.74v-.39Zm0,.93,5.75,1.74v.16H46.16v-.16ZM48.94,64h.42l.12,0,.24-1.86.78.12.17,2a1.5,1.5,0,0,1,.22.06c.69.25,1.1.64,1.08.92v0c0,.35-.77.71-1.82.69a5.69,5.69,0,0,1-.7,0c-1.34-.15-2.33-.79-2.29-1.21v0C47.18,64.32,47.91,64,48.94,64Zm-19.31,7.6a2,2,0,0,1,.43.14l.08.05a6.4,6.4,0,0,1-1.92.37,31.1,31.1,0,0,1-3.22,0l.72-1.86L24,68.62c.34,0,1.59.14,1.78.14l2.12,2.55S29.25,71.48,29.63,71.57ZM35,65.76a16.66,16.66,0,0,0-6.95,5.07l-.1.11c-.78-1.11-2-2-2.61-3.52v0a13.9,13.9,0,0,1,5.5-4.56c.22-.12.45-.23.69-.34A31.68,31.68,0,0,1,40.29,60h0l.5,0,.27.24h0a3,3,0,0,1,.26,1.53A20,20,0,0,1,41.2,64a27.12,27.12,0,0,0-5.29,1.41C35.61,65.52,35.33,65.64,35,65.76Zm11.17,2.16a22.33,22.33,0,0,1-10-2.35,28,28,0,0,1,3.89-1.1L40,64.9a.82.82,0,0,0-.09.34v.07c.11.63,1,.91,2.08.93a6.11,6.11,0,0,0,.73,0c1.37-.19,2.48-.74,2.52-1.47,0,0,0,0,0-.07a.74.74,0,0,0-.12-.29l-.3-.6q.61,0,1.26,0h0c.32,0,.72,0,1.13.05l-.23.61a.6.6,0,0,0-.1.25s0,0,0,.08c0,.73,1.15,1.28,2.52,1.47a6.18,6.18,0,0,0,.73,0c1.08,0,2-.29,2.08-.92v-.08a.66.66,0,0,0-.11-.36L52,64.46a26.81,26.81,0,0,1,4,1.17A22.38,22.38,0,0,1,46.21,67.92Zm11-2.1c-.28-.12-.56-.24-.86-.35A28.48,28.48,0,0,0,51,64l-.11-1.33c-.05-.48-.13-1-.13-1.46A1.43,1.43,0,0,1,51,60.14a2.24,2.24,0,0,1,.26-.23h0l.53.05h0a31.45,31.45,0,0,1,8.91,2.61l.69.34a14,14,0,0,1,5.33,4.48l0,0c-.6,1.52-1.83,2.42-2.61,3.51L64,70.82A16.58,16.58,0,0,0,57.25,65.82Zm8.83,4.46.72,1.86c-1.25,0-1.92,0-3,0a7.12,7.12,0,0,1-1.46-.18,1.25,1.25,0,0,1-.31-.12l0,0a6.46,6.46,0,0,1,2.17-.44h.08l2.11-2.55c.34,0,1.13-.15,1.43-.15Z"/>
    <path class="cls-1" d="M46.37,8.61A36.63,36.63,0,1,0,83,45.24,36.63,36.63,0,0,0,46.37,8.61ZM71.49,70.36A35.53,35.53,0,1,1,81.9,45.24,35.44,35.44,0,0,1,71.49,70.36Z"/>
    <path class="cls-1" d="M35.28,38.31a1.46,1.46,0,0,1,.12.4s0,0,0,0h0a.1.1,0,0,0,0,0l.13.06.13,0a4.84,4.84,0,0,0,1.2.16,5.23,5.23,0,0,0,1-.1l.37-.09.12-.06,0,0s.06,0,.06-.08a1.59,1.59,0,0,1,.13-.4.93.93,0,0,1,.36-.43s0,0,0,0a.05.05,0,0,0,0,0,.41.41,0,0,0-.23-.09.42.42,0,0,0-.28.13.17.17,0,0,0-.11,0,.4.4,0,0,0-.26.12h0a0,0,0,0,0,0,0l0,0h0l.09.07a.15.15,0,0,1,.05.08.08.08,0,0,1,0,0h0a.27.27,0,0,1-.17.06l-.14,0h0c-.14-.07-.17-.14-.17-.19a.16.16,0,0,1,0-.09l.07,0h0s0,0,0,0a.06.06,0,0,0,0,0,.58.58,0,0,0-.22-.31.48.48,0,0,0-.27-.07l-.18,0s0-.09-.07-.14a.57.57,0,0,0-.08-.13.14.14,0,0,0-.24,0,.93.93,0,0,0-.15.27l-.18,0a.49.49,0,0,0-.28.07.52.52,0,0,0-.21.31s0,0,0,0,0,0,0,0h0a.13.13,0,0,1,.07,0,.12.12,0,0,1,0,.09s0,.12-.17.19h0l-.13,0a.33.33,0,0,1-.19-.06h0a.09.09,0,0,1,0,0s0-.07.06-.1l0,0h0v0a.08.08,0,0,0,0,0,.41.41,0,0,0-.26-.13.14.14,0,0,0-.11,0,.42.42,0,0,0-.28-.13.44.44,0,0,0-.24.09s0,0,0,0,0,0,0,0A1.07,1.07,0,0,1,35.28,38.31Zm-.13-.5a.36.36,0,0,1,.24.13,0,0,0,0,0,.07,0,.1.1,0,0,1,.08,0,.29.29,0,0,1,.15.07l-.08.06a.14.14,0,0,0-.06.11.2.2,0,0,0,.09.16.34.34,0,0,0,.24.07l.2,0a.77.77,0,0,0,.18-.1.22.22,0,0,0,.09-.17.09.09,0,0,0,0,0,.18.18,0,0,0-.05-.11.2.2,0,0,0-.15-.07h0a.36.36,0,0,1,.38-.23h.19a0,0,0,0,0,0,0l0,0a1.12,1.12,0,0,1,.1-.18.18.18,0,0,1,0-.07l0,0a.11.11,0,0,1,.05,0,.71.71,0,0,1,.11.17l0,.11a0,0,0,0,0,.06,0h0l.18,0a.5.5,0,0,1,.23,0,.55.55,0,0,1,.15.18h0a.17.17,0,0,0-.14.07.3.3,0,0,0-.06.11v0a.21.21,0,0,0,.1.18,1,1,0,0,0,.18.1l.2,0a.29.29,0,0,0,.22-.07.2.2,0,0,0,.09-.16.16.16,0,0,0,0-.11L38.18,38a.31.31,0,0,1,.16-.07.12.12,0,0,1,.08,0,0,0,0,0,0,.06,0,.37.37,0,0,1,.25-.13.24.24,0,0,1,.13,0,1,1,0,0,0-.34.43,1.54,1.54,0,0,0-.13.38l-.07,0a2.53,2.53,0,0,0-.6-.14,7.26,7.26,0,0,0-.8,0,6,6,0,0,0-1,.07,2.33,2.33,0,0,0-.37.08.39.39,0,0,0-.11.06h0a1.55,1.55,0,0,0-.12-.37,1,1,0,0,0-.34-.43A.22.22,0,0,1,35.15,37.81Z"/>
    <path class="cls-1" d="M38.4,40.17a1.42,1.42,0,0,1,.12.39l0,0h0l.05,0,.13.05.13,0a4.4,4.4,0,0,0,1.2.17,5.23,5.23,0,0,0,1-.1,2.43,2.43,0,0,0,.37-.1.34.34,0,0,0,.12-.06h0a.11.11,0,0,0,.06-.09,1.55,1.55,0,0,1,.13-.39.84.84,0,0,1,.36-.43l0,0s0,0,0,0a.35.35,0,0,0-.23-.09.42.42,0,0,0-.28.13.19.19,0,0,0-.11,0,.36.36,0,0,0-.25.13h0v0l0,0,0,0a.25.25,0,0,1,.08.07.15.15,0,0,1,0,.08,0,0,0,0,1,0,0h0a.27.27,0,0,1-.17.06.36.36,0,0,1-.14,0h0c-.14-.08-.17-.15-.17-.19a.1.1,0,0,1,0-.09l.06,0H41a0,0,0,0,0,0,0,.45.45,0,0,0-.22-.3.49.49,0,0,0-.27-.08.66.66,0,0,0-.18,0,.93.93,0,0,0-.07-.15.5.5,0,0,0-.08-.12.14.14,0,0,0-.24,0,.82.82,0,0,0-.15.27.74.74,0,0,0-.18,0,.5.5,0,0,0-.28.08.47.47,0,0,0-.21.3,0,0,0,0,0,0,0h.06a.09.09,0,0,1,.07,0,.11.11,0,0,1,.05.09s0,.12-.18.19h0a.3.3,0,0,1-.13,0,.28.28,0,0,1-.18-.06h0a.06.06,0,0,1,0,0,.2.2,0,0,1,.06-.11l0,0h0a.05.05,0,0,0,0,0,.39.39,0,0,0-.26-.14.15.15,0,0,0-.11,0,.42.42,0,0,0-.28-.13.38.38,0,0,0-.24.09s0,0,0,0l0,0A.89.89,0,0,1,38.4,40.17Zm-.13-.51a.42.42,0,0,1,.25.14.06.06,0,0,0,.06,0,.1.1,0,0,1,.08,0,.29.29,0,0,1,.15.07.24.24,0,0,0-.08.06.14.14,0,0,0-.06.11.24.24,0,0,0,.09.15.41.41,0,0,0,.24.08.76.76,0,0,0,.38-.13.24.24,0,0,0,.09-.18v0a.34.34,0,0,0-.06-.12.21.21,0,0,0-.15-.06h0a.39.39,0,0,1,.15-.18.46.46,0,0,1,.23-.06l.13,0h.06a0,0,0,0,0,.05,0l0-.05s.06-.12.1-.18,0,0,.05-.06l0,0a.11.11,0,0,1,0,0,1.08,1.08,0,0,1,.11.18.55.55,0,0,1,0,.1,0,0,0,0,0,.06,0h0a.59.59,0,0,1,.18,0,.53.53,0,0,1,.23.06.46.46,0,0,1,.15.18h0a.2.2,0,0,0-.14.06.34.34,0,0,0-.06.12v0a.22.22,0,0,0,.1.18.61.61,0,0,0,.18.09.54.54,0,0,0,.2,0,.35.35,0,0,0,.22-.08.2.2,0,0,0,.09-.15.16.16,0,0,0,0-.11.2.2,0,0,0-.09-.06.31.31,0,0,1,.16-.07.12.12,0,0,1,.08,0,.06.06,0,0,0,.06,0c.11-.1.18-.14.25-.14a.38.38,0,0,1,.13,0,1.07,1.07,0,0,0-.34.43,2.18,2.18,0,0,0-.13.39l-.07-.05a2.09,2.09,0,0,0-.6-.13,7.31,7.31,0,0,0-.8-.05,7.45,7.45,0,0,0-.95.07,2.23,2.23,0,0,0-.37.09l-.11,0h0a1.76,1.76,0,0,0-.12-.38,1.07,1.07,0,0,0-.34-.43A.38.38,0,0,1,38.27,39.66Z"/>
    <path class="cls-1" d="M41.47,38.35a1.44,1.44,0,0,1,.13.39s0,0,0,0h0l0,0,.13.05.14,0a4.27,4.27,0,0,0,1.19.17,5.15,5.15,0,0,0,1-.1,1.92,1.92,0,0,0,.37-.1l.12-.06h0a.2.2,0,0,0,.06-.09,1.33,1.33,0,0,1,.12-.39.89.89,0,0,1,.36-.43.05.05,0,0,0,0,0,0,0,0,0,0,0,0,.39.39,0,0,0-.24-.1.44.44,0,0,0-.28.14.15.15,0,0,0-.11,0,.38.38,0,0,0-.25.13h0l0,0,0,0,0,0,.09.07a.12.12,0,0,1,0,.08,0,0,0,0,1,0,0h0a.25.25,0,0,1-.17.06.32.32,0,0,1-.13,0h0c-.15-.08-.18-.15-.18-.19a.1.1,0,0,1,0-.09A.09.09,0,0,1,44,38h.07a0,0,0,0,0,0,0,.47.47,0,0,0-.21-.3.52.52,0,0,0-.28-.08.74.74,0,0,0-.18,0,.77.77,0,0,0-.06-.15l-.09-.12a.14.14,0,0,0-.24,0,1.06,1.06,0,0,0-.15.27.66.66,0,0,0-.18,0,.49.49,0,0,0-.27.08.48.48,0,0,0-.22.3,0,0,0,0,0,0,0h.06a.12.12,0,0,1,.08,0,.13.13,0,0,1,0,.09s0,.12-.18.19h0a.32.32,0,0,1-.13,0,.29.29,0,0,1-.19-.06h0a.06.06,0,0,1,0,0,.17.17,0,0,1,.07-.11l0,0h0s0,0,0,0a.44.44,0,0,0-.27-.14.19.19,0,0,0-.11,0,.44.44,0,0,0-.28-.14.37.37,0,0,0-.23.1s0,0,0,0a.05.05,0,0,0,0,0A.84.84,0,0,1,41.47,38.35Zm-.13-.51a.42.42,0,0,1,.25.14.06.06,0,0,0,.06,0,.12.12,0,0,1,.08,0,.26.26,0,0,1,.15.07.16.16,0,0,0-.08.06.16.16,0,0,0,0,.11.2.2,0,0,0,.09.15.36.36,0,0,0,.24.08.54.54,0,0,0,.2,0,.42.42,0,0,0,.17-.1.21.21,0,0,0,.09-.17v0a.34.34,0,0,0-.06-.12.2.2,0,0,0-.14-.06h0a.46.46,0,0,1,.15-.18.49.49,0,0,1,.23-.06l.14,0h0a0,0,0,0,0,.06,0,.1.1,0,0,1,0,0,1,1,0,0,1,.09-.18l.05-.06,0,0,.06,0,.1.18.05.1a0,0,0,0,0,0,0h0a.59.59,0,0,1,.18,0,.49.49,0,0,1,.23.06.39.39,0,0,1,.15.18h0a.21.21,0,0,0-.15.06.34.34,0,0,0-.06.12v0a.22.22,0,0,0,.1.17.5.5,0,0,0,.19.1.46.46,0,0,0,.19,0,.38.38,0,0,0,.23-.08.2.2,0,0,0,.09-.15.14.14,0,0,0-.06-.11.16.16,0,0,0-.08-.06.26.26,0,0,1,.15-.07.1.1,0,0,1,.08,0,.06.06,0,0,0,.06,0,.42.42,0,0,1,.25-.14.38.38,0,0,1,.13,0,1.07,1.07,0,0,0-.34.43,2.18,2.18,0,0,0-.13.39s0,0-.06-.05a2.26,2.26,0,0,0-.61-.13,7.31,7.31,0,0,0-.8-.05,7.45,7.45,0,0,0-1,.07,2.09,2.09,0,0,0-.36.09.33.33,0,0,0-.12,0h0a1.33,1.33,0,0,0-.12-.38,1.07,1.07,0,0,0-.34-.43A.38.38,0,0,1,41.34,37.84Z"/>
  </g>
</svg>
